<svg xmlns="http://www.w3.org/2000/svg" x="0px" y="0px" width="256" height="256" viewBox="0 0 512 512"
    style=" fill:#000000;">
    <path fill="#d0dce7"
        d="M171.93,465.5h-70l50-130h34.069c22.45,20.57,45.87,42.51,65.931,70 c20.06-27.49,43.48-49.43,65.93-70h34.07l19.23,50l30.77,80h-80H171.93z">
    </path>
    <path fill="#5cbeff" d="M61.93,305.5c11.05,0,20,8.95,20,20s-8.95,20-20,20s-20-8.95-20-20S50.88,305.5,61.93,305.5z">
    </path>
    <circle cx="441.93" cy="295.5" r="30" fill="#5cbeff"></circle>
    <path fill="#94d4ff"
        d="M471.93,145.5c5.52,0,10,4.48,10,10c0,2.76-1.12,5.26-2.93,7.07c-1.811,1.81-4.311,2.93-7.07,2.93 s-5.26-1.12-7.07-2.93c-1.81-1.81-2.93-4.31-2.93-7.07s1.12-5.26,2.93-7.07C466.67,146.62,469.17,145.5,471.93,145.5z">
    </path>
    <path fill="#94d4ff"
        d="M411.93,365.5c5.52,0,10,4.48,10,10c0,2.76-1.12,5.26-2.93,7.07c-1.811,1.81-4.311,2.93-7.07,2.93 s-5.26-1.12-7.07-2.93c-1.81-1.811-2.93-4.311-2.93-7.07s1.12-5.26,2.93-7.07C406.67,366.62,409.17,365.5,411.93,365.5z">
    </path>
    <path fill="#94d4ff"
        d="M401.93,45.5c5.52,0,10,4.48,10,10c0,2.76-1.12,5.26-2.93,7.07c-1.811,1.81-4.311,2.93-7.07,2.93 s-5.26-1.12-7.07-2.93c-1.81-1.81-2.93-4.31-2.93-7.07s1.12-5.26,2.93-7.07C396.67,46.62,399.17,45.5,401.93,45.5z">
    </path>
    <path fill="#94d4ff"
        d="M111.93,35.5c5.52,0,10,4.48,10,10c0,2.76-1.12,5.26-2.931,7.07c-1.81,1.81-4.31,2.93-7.069,2.93 s-5.26-1.12-7.07-2.93c-1.81-1.81-2.93-4.31-2.93-7.07s1.12-5.26,2.93-7.07C106.67,36.62,109.17,35.5,111.93,35.5z">
    </path>
    <path fill="#94d4ff"
        d="M81.93,385.5c5.52,0,10,4.48,10,10c0,2.76-1.12,5.26-2.931,7.07c-1.81,1.81-4.31,2.93-7.069,2.93 s-5.26-1.12-7.07-2.93c-1.81-1.811-2.93-4.311-2.93-7.07s1.12-5.26,2.93-7.07C76.67,386.62,79.17,385.5,81.93,385.5z">
    </path>
    <path fill="#94d4ff"
        d="M51.93,165.5c5.52,0,10,4.48,10,10c0,2.76-1.12,5.26-2.931,7.07c-1.81,1.81-4.31,2.93-7.069,2.93 s-5.26-1.12-7.07-2.93c-1.81-1.81-2.93-4.31-2.93-7.07s1.12-5.26,2.93-7.07C46.67,166.62,49.17,165.5,51.93,165.5z">
    </path>
    <path fill="#a0b5c5"
        d="M271.93,395.5h-40c-5.523,0-10,4.478-10,10s4.477,10,10,10h40c5.522,0,10-4.478,10-10 S277.452,395.5,271.93,395.5z">
    </path>
    <path fill="#a0b5c5"
        d="M351.93,415.5h-20c0-5.522-4.478-10-10-10s-10,4.478-10,10h-10c-5.522,0-10,4.478-10,10 s4.478,10,10,10h10v30h10h10v-30h20c5.522,0,10-4.478,10-10S357.452,415.5,351.93,415.5z">
    </path>
    <path fill="#a0b5c5"
        d="M201.93,415.5h-20v-30c0-5.522-4.478-10-10-10c-5.523,0-10,4.478-10,10v30h-10 c-5.523,0-10,4.478-10,10s4.477,10,10,10h10v30h10h10v-30h20c5.522,0,10-4.478,10-10S207.452,415.5,201.93,415.5z">
    </path>
    <path fill="#a0b5c5"
        d="M371.16,385.5l-3.847-10H331.93c-5.522,0-10,4.478-10,10s4.478,10,10,10h39.23 c1.266,0,2.472-0.245,3.587-0.674L371.16,385.5z">
    </path>
    <path fill="#d94556"
        d="M251.93,405.5C190.625,321.488,97.8,289.248,97.8,189.63c0-85.13,69-154.13,154.13-154.13 s154.13,69,154.13,154.13C406.06,289.257,313.258,321.454,251.93,405.5z">
    </path>
    <polygon fill="#d0dce7" points="344.58,148.44 318.109,148.44 185.729,148.44 159.279,148.44 252.359,95.5"></polygon>
    <path fill="#fff"
        d="M318.109,148.44v97.06H275.96v-30.04c0-6.32-2.561-12.05-6.71-16.19 c-4.141-4.15-9.86-6.71-16.19-6.71c-12.65,0-22.91,10.25-22.91,22.9v30.04h-44.42v-97.06H318.109z">
    </path>
</svg>