<svg xmlns="http://www.w3.org/2000/svg" x="0px" y="0px"
width="200" height="200"
viewBox="0 0 100 100"
style=" fill:#000000;"><circle cx="77" cy="13" r="1" fill="#f1bc19"></circle><circle cx="50" cy="50" r="37" fill="#000000"></circle><circle cx="83" cy="15" r="4" fill="#f1bc19"></circle><circle cx="87" cy="24" r="2" fill="#88ae45"></circle><circle cx="81" cy="76" r="2" fill="#fbcd59"></circle><circle cx="15" cy="63" r="4" fill="#fbcd59"></circle><circle cx="25" cy="87" r="2" fill="#88ae45"></circle><circle cx="18.5" cy="51.5" r="2.5" fill="#fff"></circle><circle cx="79.5" cy="33.5" r="1.5" fill="#fff"></circle><path fill="#edf7f5" d="M36.013,75.3c-2.929,0-5.313-2.265-5.313-5.048V29.748c0-2.783,2.383-5.048,5.313-5.048h21.765 L71.3,37.627v32.625c0,2.783-2.383,5.048-5.313,5.048H36.013z"></path><path fill="#472b29" d="M57.497,25.4l6.517,6.23l6.586,6.296v32.326c0,2.397-2.069,4.348-4.613,4.348H36.013 c-2.543,0-4.613-1.951-4.613-4.348V29.748c0-2.397,2.069-4.348,4.613-4.348h0.873h8.262H57.497 M58.059,24H45.148h-8.262h-0.873 C32.705,24,30,26.586,30,29.748v40.504C30,73.413,32.705,76,36.013,76h29.975C69.295,76,72,73.414,72,70.252V37.328 C66.578,32.145,63.481,29.183,58.059,24L58.059,24z"></path><path fill="#85cfcc" d="M57.5,25.208v7.994c0,2.914,2.396,5.298,5.325,5.298H71"></path><path fill="#472b29" d="M71,39h-8.175C59.613,39,57,36.399,57,33.202v-7.994h1v7.994C58,35.848,60.165,38,62.825,38H71V39z"></path><path fill="#472b29" d="M55.5,28.75H41.75c-0.138,0-0.25-0.112-0.25-0.25s0.112-0.25,0.25-0.25H55.5 c0.138,0,0.25,0.112,0.25,0.25S55.638,28.75,55.5,28.75z"></path><path fill="#472b29" d="M64.693,71.75H37.307c-1.686,0-3.057-1.362-3.057-3.035v-37.43c0-1.674,1.371-3.035,3.057-3.035 H39.5c0.138,0,0.25,0.112,0.25,0.25s-0.112,0.25-0.25,0.25h-2.193c-1.41,0-2.557,1.137-2.557,2.535v37.43 c0,1.398,1.147,2.535,2.557,2.535h27.387c1.41,0,2.557-1.137,2.557-2.535V57.5c0-0.138,0.112-0.25,0.25-0.25s0.25,0.112,0.25,0.25 v11.215C67.75,70.388,66.379,71.75,64.693,71.75z"></path><path fill="#472b29" d="M67.5,54.75c-0.138,0-0.25-0.112-0.25-0.25v-5c0-0.138,0.112-0.25,0.25-0.25s0.25,0.112,0.25,0.25v5 C67.75,54.638,67.638,54.75,67.5,54.75z"></path><g><path fill="#472b29" d="M67.5,48.333c-0.138,0-0.25-0.112-0.25-0.25v-2.25c0-0.138,0.112-0.25,0.25-0.25 s0.25,0.112,0.25,0.25v2.25C67.75,48.221,67.638,48.333,67.5,48.333z"></path></g><g><path fill="#472b29" d="M62.5,42.75h-23c-0.138,0-0.25-0.112-0.25-0.25s0.112-0.25,0.25-0.25h23 c0.138,0,0.25,0.112,0.25,0.25S62.638,42.75,62.5,42.75z"></path></g><g><path fill="#472b29" d="M47.5,45.75h-8c-0.138,0-0.25-0.112-0.25-0.25s0.112-0.25,0.25-0.25h8c0.138,0,0.25,0.112,0.25,0.25 S47.638,45.75,47.5,45.75z"></path></g><g><path fill="#472b29" d="M51.5,48.75h-12c-0.138,0-0.25-0.112-0.25-0.25s0.112-0.25,0.25-0.25h12 c0.138,0,0.25,0.112,0.25,0.25S51.638,48.75,51.5,48.75z"></path></g><g><path fill="#472b29" d="M62.5,48.75h-8c-0.138,0-0.25-0.112-0.25-0.25s0.112-0.25,0.25-0.25h8c0.138,0,0.25,0.112,0.25,0.25 S62.638,48.75,62.5,48.75z"></path></g><g><path fill="#472b29" d="M62.5,45.75h-13c-0.138,0-0.25-0.112-0.25-0.25s0.112-0.25,0.25-0.25h13 c0.138,0,0.25,0.112,0.25,0.25S62.638,45.75,62.5,45.75z"></path></g><g><path fill="#472b29" d="M62.5,51.75h-23c-0.138,0-0.25-0.112-0.25-0.25s0.112-0.25,0.25-0.25h23 c0.138,0,0.25,0.112,0.25,0.25S62.638,51.75,62.5,51.75z"></path></g><g><path fill="#472b29" d="M47.5,54.75h-8c-0.138,0-0.25-0.112-0.25-0.25s0.112-0.25,0.25-0.25h8c0.138,0,0.25,0.112,0.25,0.25 S47.638,54.75,47.5,54.75z"></path></g><g><path fill="#472b29" d="M62.5,54.75h-13c-0.138,0-0.25-0.112-0.25-0.25s0.112-0.25,0.25-0.25h13 c0.138,0,0.25,0.112,0.25,0.25S62.638,54.75,62.5,54.75z"></path></g><g><path fill="#472b29" d="M44.159,68.642c-0.176,0-0.347-0.094-0.438-0.259c-0.133-0.242-0.045-0.546,0.197-0.679 c1.039-0.572,1.986-1.293,2.818-2.128c-0.478-2.956,0.251-6.033,2.007-8.459c0.626-0.864,1.446-1.177,2.086-0.796 c0.492,0.292,0.694,0.866,0.602,1.708c-0.317,2.928-1.626,5.705-3.611,7.86c0.123,0.465,0.341,0.928,0.729,1.061 c0.308,0.104,0.728-0.007,1.246-0.328c0.564-0.35,1.074-0.79,1.511-1.295c-0.011-0.173-0.004-0.358,0.021-0.552 c0.174-1.325,0.806-2.557,1.779-3.47c0.152-0.144,0.378-0.176,0.565-0.083c0.187,0.094,0.296,0.294,0.273,0.501 c-0.152,1.393-0.714,2.744-1.568,3.867c0.032,0.074,0.077,0.128,0.134,0.154c0.111,0.051,0.316,0.008,0.604-0.124 c1.59-0.729,2.872-2.154,3.431-3.811c0.082-0.246,0.337-0.388,0.593-0.326c0.253,0.062,0.416,0.308,0.375,0.564l-0.026,0.162 c-0.21,1.27-0.206,2.011,0.013,2.201c0.05,0.044,0.185,0.039,0.353-0.013c0.649-0.2,0.91-1.24,1.211-2.444l0.075-0.298 c0.062-0.243,0.288-0.404,0.546-0.374c0.25,0.031,0.438,0.243,0.438,0.495c0.002,0.673,0.225,1.319,0.408,1.406 c0.051,0.021,0.196-0.025,0.401-0.194c0.229-0.188,0.5-0.784,0.661-1.139l0.113-0.247c0.068-0.143,0.199-0.245,0.354-0.276 c0.156-0.031,0.315,0.014,0.433,0.119c0.124,0.112,0.319,0.163,0.52,0.133c0.202-0.029,0.375-0.132,0.463-0.275 c0.144-0.236,0.451-0.308,0.688-0.164c0.235,0.145,0.309,0.452,0.164,0.688c-0.245,0.399-0.672,0.669-1.172,0.741 c-0.263,0.038-0.527,0.017-0.765-0.058c-0.216,0.462-0.479,0.967-0.824,1.252c-0.65,0.533-1.154,0.471-1.463,0.326 c-0.201-0.095-0.361-0.245-0.488-0.424c-0.293,0.811-0.706,1.454-1.469,1.689c-0.67,0.205-1.078,0.01-1.306-0.189 c-0.26-0.227-0.4-0.555-0.464-0.94c-0.745,0.985-1.73,1.794-2.846,2.306c-0.363,0.167-0.908,0.361-1.428,0.128 c-0.156-0.069-0.291-0.167-0.403-0.29c-0.416,0.421-0.879,0.793-1.38,1.104c-0.796,0.493-1.48,0.632-2.094,0.425 c-0.391-0.133-0.867-0.456-1.193-1.22c-0.796,0.736-1.68,1.379-2.634,1.905C44.323,68.622,44.241,68.642,44.159,68.642z M50.246,57.163c-0.17,0-0.462,0.222-0.693,0.54c-1.415,1.955-2.108,4.469-1.928,6.884c1.539-1.897,2.546-4.225,2.811-6.667 c0.051-0.464-0.028-0.686-0.118-0.74C50.298,57.169,50.274,57.163,50.246,57.163z"></path></g></svg>