<?xml version="1.0"?><svg fill="#323c7a" xmlns="http://www.w3.org/2000/svg" transform="rotate(180)" viewBox="0 0 24 24" width="192px" height="192px">    <path d="M12,2C6.477,2,2,6.477,2,12c0,5.523,4.477,10,10,10s10-4.477,10-10C22,6.477,17.523,2,12,2z M10.25,16.321L10.25,16.321 c-0.414-0.414-0.414-1.086,0-1.5L13.071,12L10.25,9.179c-0.414-0.414-0.414-1.086,0-1.5l0,0c0.414-0.414,1.086-0.414,1.5,0 l3.614,3.614c0.391,0.391,0.391,1.024,0,1.414l-3.614,3.614C11.336,16.735,10.664,16.735,10.25,16.321z"/></svg>