<svg xmlns="http://www.w3.org/2000/svg" viewBox="0 0 256 256" width="192px" height="192px">
    <g id="Layer_1">
        <polygon fill="#efefef" points="213.9,49.87 213.9,250.02 42.1,250.02 42.1,5.98 170.01,5.98" />
        <circle cx="93.5" cy="198.623" r="30.5" fill="#72c1e8" />
        <path fill="#7c7b7a" d="M213.893,49.873h-40.89c-1.657,0-3-1.343-3-3V5.983L213.893,49.873z" />
        <path fill="#ffb69f"
            d="M83.625,27.069c-12.889,0-23.375,10.486-23.375,23.375V83H107V50.444 C107,37.555,96.515,27.069,83.625,27.069z" />
        <path fill="#fff"
            d="M151.59,108.631c-14.514,0-28.602,8.594-36.65,14.577c-3.775,2.806-3.775,8.483,0,11.289 c8.049,5.983,22.136,14.577,36.65,14.577c14.514,0,28.602-8.594,36.65-14.577c3.775-2.806,3.775-8.483,0-11.289 C180.192,117.225,166.105,108.631,151.59,108.631z" />
        <circle cx="151.591" cy="128.852" r="20.222" fill="#fc5d3d" />
        <path fill="#ffcbc2"
            d="M134.848,128.852c0-1.47,0.199-2.932,0.591-4.345c0.37-1.331,1.748-2.111,3.078-1.74 c1.33,0.369,2.109,1.747,1.74,3.078c-0.271,0.977-0.409,1.989-0.409,3.007c0,10.01,12.124,14.906,19.114,7.917 c0.976-0.977,2.56-0.977,3.535,0c0.977,0.976,0.977,2.559,0,3.535C152.398,150.405,134.848,143.348,134.848,128.852z" />
        <circle cx="151.591" cy="128.852" r="7.404" fill="#4c4945" />
        <path fill="#fff"
            d="M203,241.75H72.836c-1.381,0-2.5-1.119-2.5-2.5s1.119-2.5,2.5-2.5H200.5V66.414c0-1.381,1.119-2.5,2.5-2.5 s2.5,1.119,2.5,2.5V239.25C205.5,240.631,204.381,241.75,203,241.75z M62.836,241.75h-7.983c-1.381,0-2.5-1.119-2.5-2.5 s1.119-2.5,2.5-2.5h7.983c1.381,0,2.5,1.119,2.5,2.5S64.217,241.75,62.836,241.75z" />
        <path
            d="M216.4,250.02v-60.15c0-1.38-1.12-2.5-2.5-2.5s-2.5,1.12-2.5,2.5v57.65H44.6V51.97c0-1.38-1.12-2.5-2.5-2.5 c-1.38,0-2.5,1.12-2.5,2.5v198.05c0,1.367,1.112,2.5,2.5,2.5h171.8C215.285,252.52,216.4,251.409,216.4,250.02z" />
        <circle cx="213.9" cy="179.87" r="2.5" />
        <path
            d="M39.6,5.98v25.99c0,1.38,1.12,2.5,2.5,2.5c1.38,0,2.5-1.12,2.5-2.5V8.48h122.903v38.394c0,3.033,2.467,5.5,5.5,5.5H211.4 V169.87c0,1.38,1.12,2.5,2.5,2.5s2.5-1.12,2.5-2.5v-120c0-0.699-0.341-1.38-0.73-1.77L171.78,4.21 c-0.404-0.395-1.094-0.73-1.77-0.73H42.1C40.734,3.48,39.6,4.591,39.6,5.98z M173.003,47.374c-0.276,0-0.5-0.224-0.5-0.5V12.019 l35.354,35.355H173.003z" />
        <circle cx="42.1" cy="41.97" r="2.5" />
        <path
            d="M54.48,204.48h6.544c2.731,15.341,16.137,27.14,32.476,27.14c16.495,0,29.773-11.959,32.476-27.14h6.544 c1.38,0,2.5-1.12,2.5-2.5s-1.12-2.5-2.5-2.5h-6.041c0.217-8.551-2.824-16.436-7.989-22.41c-0.87-1-2.52-1.13-3.52-0.26 c-1.05,0.9-1.16,2.48-0.26,3.53c4.45,5.162,7,11.943,6.767,19.14h-5.987l-3.48-10.86c-0.738-2.325-4.029-2.304-4.76,0l-5.27,16.45 l-5.93-26.25c-0.571-2.581-4.274-2.586-4.87-0.02l-6.13,26.38l-5.3-16.56c-0.733-2.307-4.023-2.322-4.76,0l-3.48,10.86h-5.986 c-0.506-15.618,12.15-28.829,27.977-28.86c1.91,0,3.81,0.2,5.67,0.58c1.33,0.27,2.68-0.63,2.95-1.95c0.28-1.35-0.6-2.67-1.95-2.95 c-2.18-0.45-4.42-0.68-6.67-0.68c-18.323,0-33.456,15.024-32.979,33.86H54.48c-1.38,0-2.5,1.12-2.5,2.5S53.1,204.48,54.48,204.48z M73.33,204.48c1.09,0,2.05-0.7,2.38-1.74l1.66-5.16l5.68,17.76c0.803,2.458,4.265,2.219,4.82-0.2l5.71-24.58l5.55,24.56 c0.557,2.452,4.019,2.666,4.82,0.22l5.68-17.76l1.66,5.16c0.33,1.04,1.29,1.74,2.38,1.74h7.196 c-2.725,12.611-13.966,22.114-27.366,22.14c-13.401-0.026-24.641-9.529-27.366-22.14H73.33z" />
        <path
            d="M124,65.8h46c1.38,0,2.5-1.13,2.5-2.5c0-1.38-1.12-2.5-2.5-2.5h-46c-1.38,0-2.5,1.12-2.5,2.5 C121.5,64.67,122.62,65.8,124,65.8z" />
        <path
            d="M124,78.82h58.78c1.38,0,2.5-1.13,2.5-2.5c0-1.38-1.12-2.5-2.5-2.5H124c-1.38,0-2.5,1.12-2.5,2.5 C121.5,77.69,122.62,78.82,124,78.82z" />
        <path
            d="M153,194.48h34.08c1.38,0,2.5-1.12,2.5-2.5s-1.12-2.5-2.5-2.5H153c-1.38,0-2.5,1.12-2.5,2.5S151.62,194.48,153,194.48z" />
        <path
            d="M153,207.5h41.5c1.38,0,2.5-1.12,2.5-2.5c0-1.38-1.12-2.5-2.5-2.5H153c-1.38,0-2.5,1.12-2.5,2.5 C150.5,206.38,151.62,207.5,153,207.5z" />
        <path
            d="M74.05,123.32c-1.38,0-2.5,1.12-2.5,2.5s1.12,2.5,2.5,2.5h21.28c1.38,0,2.5-1.12,2.5-2.5s-1.12-2.5-2.5-2.5H74.05z" />
        <path
            d="M52.35,138.84c0,1.38,1.12,2.5,2.5,2.5h40.48c1.38,0,2.5-1.12,2.5-2.5s-1.12-2.5-2.5-2.5H54.85 C53.47,136.34,52.35,137.46,52.35,138.84z" />
        <path
            d="M83.63,24.57c-14.27,0-25.88,11.61-25.88,25.87V83c0,1.38,1.12,2.5,2.5,2.5c1.38,0,2.5-1.12,2.5-2.5V50.44 c0.02-11.49,9.39-20.85,20.88-20.87c11.49,0.02,20.85,9.38,20.87,20.87V83c0,1.38,1.12,2.5,2.5,2.5c1.38,0,2.5-1.12,2.5-2.5V50.44 C109.5,36.18,97.89,24.57,83.63,24.57z" />
        <path
            d="M98.79,72.29V50.44c0-8.36-6.8-15.16-15.16-15.16s-15.17,6.8-15.17,15.16v21.85c0,1.38,1.12,2.5,2.5,2.5 c1.38,0,2.5-1.12,2.5-2.5V50.44c0.01-5.59,4.57-10.15,10.17-10.16c5.59,0.01,10.15,4.57,10.16,10.16v19.35h-8V57.67 c0-1.38-1.12-2.5-2.5-2.5c-1.38,0-2.5,1.12-2.5,2.5v14.62c0,1.395,1.164,2.602,2.697,2.48c0.538,0.031,12.265,0.02,12.803,0.02 C97.675,74.79,98.79,73.679,98.79,72.29z" />
        <path
            d="M83.29,52.25c1.38,0,2.5-1.12,2.5-2.49V48.3c0-1.38-1.12-2.5-2.5-2.5c-1.38,0-2.5,1.12-2.5,2.5v1.46 C80.79,51.13,81.91,52.25,83.29,52.25z" />
        <path
            d="M106.8,171.06c-0.7,1.18-0.3,2.72,0.89,3.42c1.108,0.671,2.708,0.339,3.42-0.89c0.713-1.195,0.299-2.717-0.88-3.42 C109.08,169.49,107.48,169.91,106.8,171.06z" />
        <path
            d="M113.448,136.503c10.87,8.08,24.603,15.068,38.14,15.07c0,0,0.001,0,0.001,0c0,0,0,0,0,0c0,0,0,0,0,0 c13.54,0,27.278-6.995,38.142-15.07c5.124-3.809,5.124-11.493,0-15.302c-10.868-8.079-24.605-15.07-38.142-15.07c0,0,0,0,0,0 c0,0,0,0,0,0c0,0-0.001,0-0.001,0c-13.541,0.002-27.275,6.994-38.141,15.07C108.326,125.009,108.323,132.694,113.448,136.503z M151.59,111.131c0.001,0,0.001,0,0.002,0c9.771,0.001,17.72,7.95,17.72,17.721c0,9.771-7.949,17.721-17.72,17.722 c-0.001,0-0.001,0-0.002,0c-9.772,0-17.721-7.95-17.721-17.722C133.869,119.081,141.818,111.131,151.59,111.131z M186.749,132.491 c-3.91,2.907-9.933,6.897-16.915,9.89c2.812-3.782,4.479-8.464,4.479-13.528c0-5.064-1.667-9.746-4.479-13.528 c6.983,2.993,13.005,6.983,16.915,9.89C189.181,127.021,189.182,130.683,186.749,132.491z M116.431,125.214 c3.911-2.907,9.934-6.897,16.917-9.89c-2.812,3.782-4.479,8.464-4.479,13.528c0,5.064,1.667,9.746,4.479,13.528 c-6.983-2.993-13.006-6.983-16.916-9.89C114,130.684,113.999,127.022,116.431,125.214z" />
        <path
            d="M151.591,138.756c5.461,0,9.904-4.443,9.904-9.904s-4.443-9.903-9.904-9.903s-9.903,4.442-9.903,9.903 S146.13,138.756,151.591,138.756z M151.591,123.949c2.704,0,4.904,2.2,4.904,4.903c0,2.704-2.2,4.904-4.904,4.904 c-2.704,0-4.903-2.2-4.903-4.904C146.687,126.148,148.887,123.949,151.591,123.949z" />
    </g>
</svg>