<svg xmlns="http://www.w3.org/2000/svg" viewBox="0 0 256 256" width="192px" height="192px">
    <g id="Layer_1">
        <rect width="29.451" height="70.162" x="28.875" y="30.345" fill="#d6c0b4" />
        <path fill="#f2e1d6"
            d="M179.809,54.018V6.687H58.326v23.658v70.162h9.753c2.882,0,5.527,1.64,6.812,4.226l8.852,17.733 c1.286,2.586,3.931,4.226,6.812,4.226h136.571V54.018H179.809z" />
        <polygon fill="#d6c0b4" points="179.809,6.687 179.809,54.018 227.126,54.018" />
        <path fill="#f0c020"
            d="M237.943,126.692h-10.817H90.555c-2.881,0-5.527-1.64-6.812-4.226l-8.852-17.733 c-1.286-2.586-3.931-4.226-6.812-4.226h-9.753H28.875H18.058c-2.527,0-4.566,2.054-4.566,4.581v139.644 c0,2.527,2.039,4.581,4.566,4.581h219.885c2.527,0,4.566-2.054,4.566-4.581V131.258 C242.509,128.732,240.469,126.692,237.943,126.692z" />
        <path fill="#f9e5af"
            d="M28.723,237.187c-1.381,0-2.5-1.119-2.5-2.5v-118.94c0-1.381,1.119-2.5,2.5-2.5h16.06 c1.381,0,2.5,1.119,2.5,2.5s-1.119,2.5-2.5,2.5h-13.56v116.44C31.223,236.067,30.104,237.187,28.723,237.187z M58.326,118.246 h-3.543c-1.381,0-2.5-1.119-2.5-2.5s1.119-2.5,2.5-2.5h3.543c1.381,0,2.5,1.119,2.5,2.5S59.707,118.246,58.326,118.246z" />
        <path fill="#f9e5af"
            d="M229,237.187h-12.944c-1.381,0-2.5-1.119-2.5-2.5s1.119-2.5,2.5-2.5H226.5V140.63 c0-1.381,1.119-2.5,2.5-2.5s2.5,1.119,2.5,2.5v94.056C231.5,236.067,230.381,237.187,229,237.187z M206.056,237.187h-4.927 c-1.381,0-2.5-1.119-2.5-2.5s1.119-2.5,2.5-2.5h4.927c1.381,0,2.5,1.119,2.5,2.5S207.437,237.187,206.056,237.187z" />
        <path fill="#fff"
            d="M71.667,89.854c-1.381,0-2.5-1.119-2.5-2.5v-5.167c0-1.381,1.119-2.5,2.5-2.5s2.5,1.119,2.5,2.5v5.167 C74.167,88.734,73.048,89.854,71.667,89.854z M71.667,73.687c-1.381,0-2.5-1.119-2.5-2.5V19.02c0-1.381,1.119-2.5,2.5-2.5 H169.5c1.381,0,2.5,1.119,2.5,2.5s-1.119,2.5-2.5,2.5H74.167v49.667C74.167,72.567,73.048,73.687,71.667,73.687z" />
        <path fill="#f2e1d6"
            d="M170.178,188.632c0,13.141-6.007,24.873-15.44,32.615c-7.286,5.963-16.59,9.564-26.738,9.564 s-19.452-3.6-26.738-9.564c-9.433-7.741-15.44-19.473-15.44-32.615c0-23.312,18.888-42.199,42.178-42.199 S170.178,165.32,170.178,188.632z" />
        <path fill="#fc5d3d"
            d="M154.738,218.71v2.537c-7.286,5.963-16.59,9.564-26.738,9.564s-19.452-3.6-26.738-9.564v-2.537 c0-11.97,9.694-21.685,21.685-21.685h10.106C145.045,197.024,154.738,206.739,154.738,218.71z" />
        <path fill="#ffcbc2"
            d="M143.841,217.828c-0.412-5.617-5.15-10.018-10.788-10.018c-1.381,0-2.5-1.119-2.5-2.5s1.119-2.5,2.5-2.5 c8.243,0,15.172,6.436,15.774,14.652c0.101,1.377-0.933,2.575-2.311,2.676C145.165,220.245,143.943,219.222,143.841,217.828z" />
        <path fill="#7c7b7a"
            d="M142.069,160.19l-5.161,2.693c-1.326,0.692-2.799,1.053-4.295,1.053h-10.342 c-3.837,0-6.233,3.232-6.233,7.223v3.92h23.937l0,0C143.497,171.327,144.709,165.63,142.069,160.19z" />
        <path fill="#ffb69f"
            d="M128.013,197.024L128.013,197.024c-6.607,0-11.975-5.356-11.975-11.962v-9.983h23.937v9.983 C139.975,191.669,134.62,197.024,128.013,197.024z" />
        <path
            d="M229.63,54.02c0-0.652-0.303-1.308-0.705-1.727c-0.012-0.013-0.018-0.03-0.031-0.042l-47.305-47.32 c-0.003-0.003-0.005-0.008-0.009-0.011c-0.415-0.415-1.102-0.73-1.77-0.73h-89.8c-1.38,0-2.5,1.12-2.5,2.5 c0,1.37,1.12,2.5,2.5,2.5h87.299v44.828c0,1.356,1.105,2.502,2.501,2.502h44.82v8.7c0,1.38,1.12,2.5,2.5,2.5 c1.37,0,2.5-1.12,2.5-2.5V54.02z M182.31,51.518V12.725l38.781,38.793H182.31z" />
        <circle cx="227.13" cy="75.22" r="2.5" />
        <circle cx="80.01" cy="6.69" r="2.5" />
        <path
            d="M96.385,62.257h53.323c1.381,0,2.5-1.119,2.5-2.5s-1.119-2.5-2.5-2.5H96.385c-1.381,0-2.5,1.119-2.5,2.5 S95.004,62.257,96.385,62.257z" />
        <path
            d="M189.066,79.348H96.385c-1.381,0-2.5,1.119-2.5,2.5s1.119,2.5,2.5,2.5h92.681c1.381,0,2.5-1.119,2.5-2.5 S190.447,79.348,189.066,79.348z" />
        <path
            d="M189.066,99.281H96.385c-1.381,0-2.5,1.119-2.5,2.5s1.119,2.5,2.5,2.5h92.681c1.381,0,2.5-1.119,2.5-2.5 S190.447,99.281,189.066,99.281z" />
        <circle cx="13.49" cy="203.79" r="2.5" />
        <path
            d="M245.01,244.73V131.26c-0.01-3.89-3.18-7.06-7.07-7.07h-8.31V85.22c0-1.38-1.13-2.5-2.5-2.5c-1.38,0-2.5,1.12-2.5,2.5 v38.97c-5.057,0-128.036,0-134.08,0c-1.92,0-3.71-1.11-4.57-2.84l-8.85-17.73c-1.72-3.46-5.19-5.61-9.05-5.61h-7.25V9.19h9.18 c1.37,0,2.5-1.13,2.5-2.5c0-1.38-1.12-2.49-2.49-2.5h-0.01H58.33c-1.392,0-2.5,1.114-2.5,2.5v21.16H28.87 c-1.41,0-2.5,1.158-2.5,2.5v67.66h-8.31c-3.89,0-7.06,3.18-7.07,7.08v88.7c0,1.37,1.12,2.5,2.5,2.5s2.5-1.13,2.5-2.5v-88.7 c0-1.15,0.93-2.08,2.07-2.08c14.888,0,25.276,0,40.27,0h9.75c1.92,0,3.72,1.11,4.57,2.84l8.85,17.73 c1.73,3.46,5.19,5.61,9.06,5.61c7.041,0,132.264,0,136.57,0h10.81c1.16,0,2.07,0.91,2.07,2.07v113.47c0,1.15-0.93,2.08-2.07,2.08 H18.06c-1.14,0-2.07-0.93-2.07-2.08v-30.94c0-1.38-1.12-2.5-2.5-2.5s-2.5,1.12-2.5,2.5v30.94c0.01,3.91,3.18,7.08,7.07,7.08 h219.88C241.83,251.81,245,248.64,245.01,244.73z M31.37,98.01V32.84h24.46v65.17C52.406,98.01,33.55,98.01,31.37,98.01z" />
        <path
            d="M128,233.31c24.501,0,44.68-19.86,44.68-44.68c0-24.79-20.106-44.7-44.68-44.7c-24.607,0-44.68,19.947-44.68,44.7 C83.32,213.452,103.49,233.31,128,233.31z M138.81,172.58h-20.272v-1.42c0-2.351,1.154-4.723,3.733-4.723h10.342 c1.891,0,3.776-0.462,5.452-1.337l2.65-1.383C141.427,166.777,140.742,170.059,138.81,172.58z M118.551,177.58h18.924v7.482 c0,5.218-4.245,9.462-9.462,9.462c-5.217,0-9.462-4.245-9.462-9.462V177.58z M122.948,199.524h10.105 c10.579,0,19.186,8.606,19.186,19.186v1.315c-6.856,5.306-15.423,8.285-24.238,8.285c-8.661,0-17.229-2.872-24.238-8.284v-1.316 C103.762,208.131,112.368,199.524,122.948,199.524z M88.32,188.63c0-21.931,17.745-39.7,39.68-39.7 c21.93,0,39.68,17.765,39.68,39.7c0,10.125-3.835,19.706-10.643,27.011c-1.288-10.12-8.851-18.304-18.656-20.518 c2.529-2.606,4.095-6.152,4.095-10.061v-9.066c3.621-4.434,4.763-10.866,1.843-16.895c-0.615-1.272-2.159-1.776-3.407-1.127 l-5.161,2.693c-0.964,0.503-2.05,0.77-3.138,0.77h-10.342c-5.06,0-8.72,4.089-8.72,9.723v13.903c0,3.907,1.564,7.451,4.09,10.056 c-9.816,2.207-17.388,10.395-18.678,20.523C92.155,208.337,88.32,198.755,88.32,188.63z" />
    </g>
</svg>