<svg xmlns="http://www.w3.org/2000/svg" x="0px" y="0px" width="256" height="256" viewBox="0 0 256 256"
    style=" fill:#000000;">
    <path fill="#995222"
        d="M75.991,89.01c31.234-21.682,75.364-23.208,104.022,3.675c4.308,3.901-2.081,10.252-6.369,6.369 c-25.403-24.133-65.69-21.496-93.107-2.265C75.715,100.043,71.212,92.236,75.991,89.01z M114.957,171.348 c-1.794,8.287-4.033,16.477-6.936,24.447c-0.832,2.286,0.935,4.933,3.146,5.54c2.507,0.689,4.705-0.852,5.54-3.146 c2.903-7.97,5.142-16.16,6.936-24.447C124.866,168.091,116.185,165.676,114.957,171.348z M98.021,69.4 c18.828-7.807,41.263-8.22,59.752,0.778c2.186,1.064,4.869,0.595,6.162-1.615c1.157-1.978,0.581-5.093-1.616-6.162 c-20.563-10.007-45.581-10.44-66.693-1.686c-2.245,0.931-3.848,2.986-3.146,5.54C93.064,68.376,95.761,70.338,98.021,69.4z M148.769,114.54c-29.666-16.619-62.285,3.258-78.996,28.863c-1.393,1.996-0.365,5.003,1.615,6.162 c2.244,1.313,4.766,0.385,6.162-1.616c8.24-11.85,19.225-22.626,32.932-27.747c29.464-10.873,53.735,11.373,56.161,40.484 c0.247,2.419,1.893,4.503,4.504,4.503c2.244,0,4.753-2.069,4.504-4.504C173.77,142.27,165.37,124.032,148.769,114.54z M186.793,139.242c-12.733-57.958-78.086-61.098-116.317-25.2c-4.225,3.986,2.153,10.347,6.369,6.369 c21.999-20.76,61.954-30.704,86.047-7.789c8.177,7.777,12.861,18.107,15.215,29.015C179.33,147.3,188.015,144.904,186.793,139.242 z M141.313,158.818c1.854,6,1.749,12.61,0.996,18.782c-0.599,4.907-1.428,9.988-3.272,14.605c-0.906,2.268-2.975,3.851-5.54,3.146 c-2.16-0.593-4.048-3.28-3.146-5.54c1.506-3.915,2.33-8.073,2.951-12.211c0.678-5.847,0.968-12.222-1.148-17.761 c-0.891-2.078-2.337-4.011-4.488-4.936c-0.447-0.227-2.113-0.542-2.258-0.622c-6.367-0.79-11.373,3.2-15.251,8.527 c-4.47,6.141-7.623,13.375-9.055,20.834c-0.461,2.401-3.336,3.751-5.54,3.146c-2.476-0.68-3.604-3.154-3.146-5.54 c1.9-9.893,6.677-19.872,13.451-27.349C116.438,141.589,136.183,141.634,141.313,158.818z M127.664,154.902 C126.93,154.542,127.493,154.838,127.664,154.902L127.664,154.902z M140.316,130.067c-24.843-12.103-53.292,8.712-60.916,32.672 c-1.915,5.484,6.784,7.841,8.685,2.395c5.406-15.758,20.715-30.004,38.18-29.639c23.481,1.097,25.784,28.831,23.199,46.95 c-0.295,2.418,2.281,4.504,4.504,4.504c2.68,0,4.208-2.078,4.504-4.504C160.704,164.166,158.893,139.671,140.316,130.067z">
    </path>
    <path fill="#7C3108"
        d="M77.55,147.949c8.24-11.85,19.225-22.626,32.932-27.747c15.352-5.665,29.293-2.339,39.47,6.264 c-10.324-12.158-26.423-17.924-44.47-11.264c-13.707,5.121-24.693,15.897-32.932,27.747c-0.832,1.193-2.065,2.004-3.4,2.187 c-0.163,1.717,0.779,3.575,2.238,4.429C73.633,150.877,76.155,149.949,77.55,147.949z">
    </path>
    <path fill="#7C3108"
        d="M158.936,63.563c-1.293,2.21-3.976,2.679-6.162,1.615c-18.489-8.997-40.924-8.584-59.752-0.778 c-0.223,0.093-0.451,0.156-0.68,0.195c-0.059,0.522-0.019,1.078,0.14,1.659c0.583,2.122,3.279,4.083,5.54,3.146 c18.828-7.807,41.263-8.22,59.752,0.778c2.186,1.064,4.869,0.595,6.162-1.615c1.157-1.978,0.581-5.093-1.616-6.162 c-0.926-0.451-1.861-0.882-2.804-1.293C159.548,61.974,159.356,62.843,158.936,63.563z">
    </path>
    <path fill="#7C3108"
        d="M126.265,135.495c5.001,0.234,9.041,1.676,12.278,3.975c-3.728-5.13-9.272-8.602-17.278-8.975 c-17.465-0.365-32.774,13.88-38.18,29.638c-0.676,1.936-2.21,2.886-3.822,3.06c-1.295,5.156,6.974,7.234,8.822,1.94 C93.491,149.375,108.8,135.13,126.265,135.495z">
    </path>
    <path fill="#7C3108"
        d="M168.644,94.054c-25.403-24.133-65.69-21.496-93.107-2.265c-0.533,0.36-1.062,0.584-1.575,0.695 c-0.183,3.278,3.114,6.642,6.575,4.305c27.417-19.231,67.704-21.868,93.107,2.265c4.288,3.883,10.677-2.468,6.369-6.369 c-1.244-1.167-2.518-2.281-3.818-3.341C177.656,93.096,172.361,97.42,168.644,94.054z">
    </path>
    <path fill="#7C3108"
        d="M157.893,107.622c-24.093-22.915-64.047-12.971-86.047,7.789c-0.859,0.811-1.808,1.192-2.739,1.252 c-0.35,3.526,4.38,6.917,7.739,3.748c21.46-20.251,60.006-30.21,84.247-9.415C160.092,109.826,159.026,108.699,157.893,107.622z">
    </path>
    <path fill="#7C3108"
        d="M118.74,168.115c-0.019,0.204-0.051,0.413-0.097,0.627c-1.794,8.287-4.033,16.477-6.936,24.447 c-0.641,1.761-2.086,3.078-3.857,3.283c-0.312,2.105,1.322,4.314,3.317,4.862c2.507,0.689,4.705-0.852,5.54-3.146 c2.903-7.97,5.142-16.16,6.936-24.447C124.391,170.284,121.431,168.038,118.74,168.115z">
    </path>
    <path fill="#7C3108"
        d="M145.137,133.166c9.349,11.801,10.084,29.95,8.335,44.279c-0.275,2.248-1.607,4.197-3.934,4.471 c-0.024,0.177-0.049,0.354-0.074,0.529c-0.295,2.418,2.281,4.504,4.504,4.504c2.68,0,4.208-2.078,4.504-4.504 C160.493,165.891,159.198,144.239,145.137,133.166z">
    </path>
    <path fill="#7C3108"
        d="M133.65,148.016c1.097,1.656,2.002,3.586,2.664,5.803c1.854,6,1.749,12.61,0.996,18.782 c-0.599,4.907-1.428,9.988-3.272,14.605c-0.7,1.752-2.094,3.095-3.874,3.29c-0.335,2.089,1.389,4.321,3.334,4.855 c2.565,0.705,4.634-0.877,5.54-3.146c1.844-4.617,2.673-9.698,3.272-14.605c0.753-6.172,0.858-12.782-0.996-18.782 C139.812,153.789,137.058,150.229,133.65,148.016z">
    </path>
    <path fill="#7C3108"
        d="M156.173,119.784c8.516,9.831,13.141,22.821,14.478,35.902c0.232,2.273-1.939,4.227-4.054,4.477 c0.016,0.174,0.032,0.349,0.046,0.524c0.247,2.419,1.893,4.503,4.504,4.503c2.244,0,4.753-2.069,4.504-4.504 C174.073,145.242,167.911,129.925,156.173,119.784z">
    </path>
    <path fill="#7C3108"
        d="M122.664,149.902c-0.598-0.294-0.334-0.151-0.123-0.053c0.047,0.018,0.088,0.035,0.122,0.052 C122.662,149.901,122.663,149.902,122.664,149.902z">
    </path>
    <path fill="#7C3108"
        d="M186.793,139.242c-3.315-15.09-10.197-26.463-19.239-34.399c6.573,7.481,11.566,17.232,14.239,29.399 c0.673,3.12-1.663,5.249-4.1,5.583c0.145,0.602,0.284,1.206,0.415,1.812C179.33,147.3,188.015,144.904,186.793,139.242z">
    </path>
    <path fill="#7C3108"
        d="M127.097,154.708c-0.895-2.028-2.325-3.9-4.43-4.805c-0.001-0.001-0.003-0.001-0.004-0.002 c-0.031-0.012-0.075-0.031-0.122-0.052c-0.572-0.22-1.998-0.494-2.132-0.567c-6.367-0.79-11.373,3.2-15.251,8.527 c-4.47,6.141-7.623,13.375-9.055,20.834c-0.343,1.787-2.024,2.992-3.77,3.241c-0.163,2.175,0.974,4.284,3.23,4.904 c2.204,0.605,5.079-0.745,5.54-3.146c1.432-7.458,4.585-14.693,9.055-20.834c3.878-5.327,8.884-9.317,15.251-8.527 C125.514,154.34,126.435,154.524,127.097,154.708z">
    </path>
    <g>
        <path fill="#478CF7"
            d="M32.382,95.877c-3.538,0-6.407-2.869-6.407-6.407V43.847c0-3.538,2.869-6.407,6.407-6.407h45.624 c3.538,0,6.407,2.869,6.407,6.407c0,3.538-2.869,6.407-6.407,6.407H38.788v39.217C38.788,93.009,35.92,95.877,32.382,95.877z">
        </path>
        <path fill="#5E9CF7"
            d="M31.979,81.82c-1.109,0-2.01-0.9-2.01-2v-20c0-1.1,0.9-2,2.01-2c1.101,0,1.99,0.9,1.99,2v20 C33.97,80.92,33.08,81.82,31.979,81.82z M31.979,53.82c-1.109,0-2.01-0.9-2.01-2s0.9-2,2.01-2c1.101,0,1.99,0.9,1.99,2 S33.08,53.82,31.979,53.82z">
        </path>
        <path fill="#377DE2"
            d="M79.284,37.569c0.084,0.413,0.128,0.841,0.128,1.278c0,3.538-2.869,6.407-6.407,6.407H33.788v39.217 c0,3.538-2.869,6.407-6.407,6.407c-0.438,0-0.865-0.045-1.278-0.128c0.593,2.925,3.178,5.128,6.278,5.128 c3.538,0,6.407-2.869,6.407-6.407V50.253h39.218c3.538,0,6.407-2.869,6.407-6.407C84.413,40.747,82.21,38.161,79.284,37.569z">
        </path>
        <path fill="#478CF7"
            d="M223.618,95.877c3.538,0,6.407-2.869,6.407-6.407V43.847c0-3.538-2.869-6.407-6.407-6.407h-45.624 c-3.538,0-6.407,2.869-6.407,6.407c0,3.538,2.869,6.407,6.407,6.407h39.218v39.217 C217.212,93.009,220.08,95.877,223.618,95.877z">
        </path>
        <g>
            <path fill="#377DE2"
                d="M217.34,45.253h-44.346c-0.438,0-0.865-0.045-1.278-0.128c0.593,2.926,3.178,5.128,6.278,5.128h39.346 V45.253z">
            </path>
            <path fill="#377DE2"
                d="M224.897,37.569c0.084,0.413,0.128,0.841,0.128,1.278v45.624c0,3.538-2.869,6.407-6.407,6.407 c-0.438,0-0.865-0.045-1.278-0.128c0.593,2.925,3.178,5.128,6.278,5.128c3.538,0,6.407-2.869,6.407-6.407V43.847 C230.025,40.747,227.822,38.161,224.897,37.569z">
            </path>
        </g>
        <g>
            <path fill="#478CF7"
                d="M223.618,160.123c3.538,0,6.407,2.869,6.407,6.407v45.624c0,3.538-2.869,6.407-6.407,6.407h-45.624 c-3.538,0-6.407-2.869-6.407-6.407s2.869-6.407,6.407-6.407h39.218v-39.217C217.212,162.991,220.08,160.123,223.618,160.123z">
            </path>
            <path fill="#377DE2"
                d="M224.897,160.251c0.084,0.413,0.128,0.841,0.128,1.278v45.624c0,3.538-2.869,6.407-6.407,6.407h-45.624 c-0.438,0-0.865-0.045-1.278-0.128c0.593,2.926,3.178,5.128,6.278,5.128h45.624c3.538,0,6.407-2.869,6.407-6.407v-45.624 C230.025,163.429,227.822,160.844,224.897,160.251z">
            </path>
            <path fill="#478CF7"
                d="M32.382,160.123c-3.538,0-6.407,2.869-6.407,6.407v45.624c0,3.538,2.869,6.407,6.407,6.407h45.624 c3.538,0,6.407-2.869,6.407-6.407s-2.869-6.407-6.407-6.407H38.788v-39.217C38.788,162.991,35.92,160.123,32.382,160.123z">
            </path>
            <path fill="#377DE2"
                d="M33.788,161.529v44.345h5v-39.345c0-3.1-2.203-5.686-5.128-6.278 C33.744,160.664,33.788,161.091,33.788,161.529z">
            </path>
            <path fill="#377DE2"
                d="M79.284,205.875c0.084,0.413,0.128,0.841,0.128,1.278c0,3.538-2.869,6.407-6.407,6.407H27.382 c-0.438,0-0.865-0.045-1.278-0.128c0.593,2.926,3.178,5.128,6.278,5.128h45.624c3.538,0,6.407-2.869,6.407-6.407 C84.413,209.053,82.21,206.467,79.284,205.875z">
            </path>
        </g>
    </g>
    <g>
        <path fill="#FFA91A"
            d="M26.103,128L26.103,128c0-3.503,2.84-6.342,6.342-6.342h191.109c3.503,0,6.342,2.84,6.342,6.342v0 c0,3.503-2.84,6.342-6.342,6.342H32.446C28.943,134.342,26.103,131.503,26.103,128z">
        </path>
    </g>
    <g>
        <path fill="#F79219"
            d="M223.554,121.657h-4.818c-1.148,1.624-3.041,2.685-5.182,2.685H27.264c-0.731,1.034-1.16,2.295-1.16,3.658 l0,0c0,3.503,2.84,6.342,6.342,6.342h191.109c3.503,0,6.342-2.839,6.342-6.342l0,0 C229.897,124.497,227.057,121.657,223.554,121.657z">
        </path>
    </g>
    <g>
        <path fill="#EF7816"
            d="M224.778,121.776c0.077,0.396,0.118,0.805,0.118,1.224l0,0c0,3.503-2.84,6.342-6.342,6.342H27.446 c-0.419,0-0.828-0.041-1.224-0.119c0.57,2.917,3.14,5.119,6.224,5.119h191.109c3.503,0,6.342-2.84,6.342-6.342l0,0 C229.897,124.916,227.695,122.346,224.778,121.776z">
        </path>
    </g>
</svg>