<svg xmlns="http://www.w3.org/2000/svg" x="0px" y="0px" width="64" height="64" viewBox="0 0 64 64"
    style=" fill:#000000;">
    <g data-name="fingerprint scan">
        <path fill="#ee8700" d="M51,26V38a19,19,0,0,1-38,0V26a19,19,0,0,1,38,0Z"></path>
        <path fill="#ff9811" d="M47,26V38a15,15,0,0,1-30,0V26a15,15,0,0,1,30,0Z"></path>
        <path fill="#ffa733" d="M43,26V38a11,11,0,1,1-22,0V26a11,11,0,1,1,22,0Z"></path>
        <path fill="#ffb655" d="M39,26V38a7,7,0,1,1-14,0V26a7,7,0,1,1,14,0Z"></path>
        <path fill="#ffc477" d="M35,26V38a3,3,0,0,1-6,0V26a3,3,0,0,1,6,0Z"></path>
        <path fill="#ffde55" d="M60.41,36.59A2,2,0,0,1,59,40a2.006,2.006,0,0,1-2-2,1.994,1.994,0,0,1,3.41-1.41Z"></path>
        <path fill="#006468" d="M51,32v6a19,19,0,0,1-38,0V32h4v6a15,15,0,0,0,30,0V32Z"></path>
        <path fill="#007579" d="M47,32v6a15,15,0,0,1-30,0V32h4v6a11,11,0,0,0,22,0V32Z"></path>
        <path fill="#009698" d="M43,32v6a11,11,0,1,1-22,0V32h4v6a7,7,0,0,0,14,0V32Z"></path>
        <path fill="#00d7df" d="M39,32v6a7,7,0,1,1-14,0V32h4v6a3,3,0,0,0,6,0V32Z"></path>
        <path fill="#00e7f0" d="M35,32v6a3,3,0,0,1-6,0V32Z"></path>
        <path fill="#ffde55"
            d="M6.41,24.59A2,2,0,0,1,5,28a2.006,2.006,0,0,1-2-2,2.015,2.015,0,0,1,2-2A1.955,1.955,0,0,1,6.41,24.59Z">
        </path>
        <path
            d="M30.2,55.91a17.944,17.944,0,0,1-10.19-4.48.995.995,0,0,0-1.66.75.986.986,0,0,0,.33.74A19.819,19.819,0,0,0,30,57.9c.03,0,.07.011.1.011a1.015,1.015,0,0,0,1-.91,1.03,1.03,0,0,0-.23-.73A.992.992,0,0,0,30.2,55.91Z">
        </path>
        <path
            d="M44.12,51.31a.009.009,0,0,0-.01.009A17.86,17.86,0,0,1,33.97,55.89a1.006,1.006,0,0,0-.9,1c0,.04.01.07.01.11a1,1,0,0,0,.99.89.41.41,0,0,0,.11-.01A19.813,19.813,0,0,0,45.45,52.8a.991.991,0,0,0,.07-1.41A1.023,1.023,0,0,0,44.12,51.31Z">
        </path>
        <path
            d="M26.08,8.939a1.058,1.058,0,0,0,.31-.049,18.166,18.166,0,0,1,11.13-.031,1.009,1.009,0,0,0,1.26-.639,1.047,1.047,0,0,0,.05-.3.99.99,0,0,0-.69-.96,20.246,20.246,0,0,0-12.37.03,1,1,0,0,0,.31,1.949Z">
        </path>
        <path
            d="M51,36.9a1,1,0,0,0-1,1V38a17.836,17.836,0,0,1-3.39,10.51,1,1,0,0,0,1.63,1.17A19.866,19.866,0,0,0,52,38v-.1A1,1,0,0,0,51,36.9Z">
        </path>
        <path
            d="M40.96,10.38v.01a18.106,18.106,0,0,1,7.47,8.25,1,1,0,0,0,.91.589.914.914,0,0,0,.41-.089,1.014,1.014,0,0,0,.6-.911.985.985,0,0,0-.09-.41,20.276,20.276,0,0,0-8.3-9.17,1.028,1.028,0,0,0-1.36.371.963.963,0,0,0-.1.76A.99.99,0,0,0,40.96,10.38Z">
        </path>
        <path
            d="M14,38.069V38a1,1,0,0,0-2,0v.08a19.862,19.862,0,0,0,3.87,11.75,1.017,1.017,0,0,0,.81.4.966.966,0,0,0,.59-.189,1,1,0,0,0,.21-1.4A17.9,17.9,0,0,1,14,38.069Z">
        </path>
        <path
            d="M14.21,19.229a.963.963,0,0,0,.41.09,1.006,1.006,0,0,0,.91-.6,18.214,18.214,0,0,1,7.43-8.29,1,1,0,0,0,.5-.87.993.993,0,0,0-.14-.5,1.032,1.032,0,0,0-1.37-.36,20.253,20.253,0,0,0-8.25,9.21,1,1,0,0,0-.02.76A1.033,1.033,0,0,0,14.21,19.229Z">
        </path>
        <path
            d="M18,38a1,1,0,0,0-2,0v.06A16,16,0,0,0,21.42,50a1,1,0,0,0,.66.25.981.981,0,0,0,.75-.34,1,1,0,0,0-.08-1.4l-.01-.01A14.024,14.024,0,0,1,18,38.06V38Z">
        </path>
        <path
            d="M40.48,49.62a1.028,1.028,0,0,0,.23.64,1.006,1.006,0,0,0,1.4.139A16.044,16.044,0,0,0,47.99,38.68a1.011,1.011,0,0,0-.27-.72.953.953,0,0,0-.69-.32,1,1,0,0,0-1.04.96,14.021,14.021,0,0,1-5.14,10.25A1,1,0,0,0,40.48,49.62Z">
        </path>
        <path
            d="M38.81,52.17a.956.956,0,0,0-.01-.76,1.015,1.015,0,0,0-1.31-.53l-.01.01a14.125,14.125,0,0,1-11.46-.23,1.027,1.027,0,0,0-1.33.48.934.934,0,0,0-.1.429.991.991,0,0,0,.58.9,16,16,0,0,0,13.1.25A.973.973,0,0,0,38.81,52.17Z">
        </path>
        <path
            d="M45.21,18.81a.974.974,0,0,0,.46-.84,1.048,1.048,0,0,0-.15-.54,16.023,16.023,0,0,0-10.94-7.22,1,1,0,1,0-.32,1.97,14.008,14.008,0,0,1,9.57,6.33.985.985,0,0,0,.84.46A.949.949,0,0,0,45.21,18.81Z">
        </path>
        <path
            d="M31.21,11.109V10.99a1.008,1.008,0,0,0-1.11-.881A16,16,0,0,0,18.86,16.87a.974.974,0,0,0-.16.739.953.953,0,0,0,.41.651.964.964,0,0,0,.57.179,1,1,0,0,0,.82-.429,13.992,13.992,0,0,1,9.83-5.91A1,1,0,0,0,31.21,11.109Z">
        </path>
        <path
            d="M43,26.979a1,1,0,0,0,1-1A12.033,12.033,0,0,0,37.87,15.53a1.023,1.023,0,0,0-1.36.39,1,1,0,0,0,.38,1.36h.02a10.053,10.053,0,0,1,5.09,8.7A1,1,0,0,0,43,26.979Z">
        </path>
        <path
            d="M39.84,44.21A9.952,9.952,0,0,1,32,48a10.148,10.148,0,0,1-1.56-.12,1.006,1.006,0,0,0-1.15.83c0,.05-.01.1-.01.149a1,1,0,0,0,.85.991A11.6,11.6,0,0,0,32,50a11.923,11.923,0,0,0,9.4-4.55.933.933,0,0,0,.21-.73.966.966,0,0,0-.37-.67A1.018,1.018,0,0,0,39.84,44.21Z">
        </path>
        <path
            d="M23.39,20.149a.985.985,0,0,0,.78-.379A10,10,0,0,1,32,16a10.215,10.215,0,0,1,1.58.12,1.02,1.02,0,0,0,1.15-.83c0-.05.01-.1.01-.15a1.009,1.009,0,0,0-.83-.991H33.9c-.02,0-.05-.009-.07-.009A12.424,12.424,0,0,0,32,14a11.926,11.926,0,0,0-9.39,4.53,1,1,0,0,0,.16,1.4A1.025,1.025,0,0,0,23.39,20.149Z">
        </path>
        <path
            d="M22,38.02V38a1,1,0,0,0-2,0v.05a12.02,12.02,0,0,0,6.15,10.429.967.967,0,0,0,.48.121,1,1,0,0,0,.49-1.871A10.03,10.03,0,0,1,22,38.1v-.08Z">
        </path>
        <path
            d="M38,25.96a1,1,0,0,0,1,1h.01a1.012,1.012,0,0,0,.99-.99v-.08a8.024,8.024,0,0,0-10.01-7.64,1,1,0,0,0,.5,1.939A5.94,5.94,0,0,1,32,20,6.016,6.016,0,0,1,38,25.96Z">
        </path>
        <path
            d="M26,38a1,1,0,0,0-2,0v.09A8.031,8.031,0,0,0,32,46a7.863,7.863,0,0,0,2.05-.271.978.978,0,0,0,.61-.459.963.963,0,0,0,.1-.76,1.01,1.01,0,0,0-1.22-.71h-.01A5.995,5.995,0,0,1,26,38.069V38Z">
        </path>
        <path
            d="M35,29.4a1,1,0,0,0,1-1V26a4,4,0,0,0-7.72-1.47,1,1,0,1,0,1.85.74h.01A1.984,1.984,0,0,1,32,24a2.005,2.005,0,0,1,2,2v2.4A1,1,0,0,0,35,29.4Z">
        </path>
        <path d="M61,2H53V4h7v7h2V3A1,1,0,0,0,61,2Z"></path>
        <path d="M60,60H53v2h8a1,1,0,0,0,1-1V53H60Z"></path>
        <path d="M4,4h7V2H3A1,1,0,0,0,2,3v8H4Z"></path>
        <path d="M4,53H2v8a1,1,0,0,0,1,1h8V60H4Z"></path>
        <rect width="2" height="2" x="2" y="31"></rect>
        <path
            d="M58,31H52V26a20.3,20.3,0,0,0-.44-4.2,1.029,1.029,0,0,0-1.19-.77,1.01,1.01,0,0,0-.77,1.19v.009A17.628,17.628,0,0,1,50,26v5H48V26a15.98,15.98,0,0,0-.63-4.47,1,1,0,0,0-1.84-.211,1,1,0,0,0-.09.75v.011A14.017,14.017,0,0,1,46,26v5H44V29.859a1,1,0,0,0-2,0V31H40v-.8a1,1,0,0,0-2,0V31H35.149a.385.385,0,0,0-.3,0H30V28.439a1,1,0,0,0-2,0V31H26V26a6.046,6.046,0,0,1,1.45-3.92.98.98,0,0,0,.25-.65,1.009,1.009,0,0,0-.35-.76,1.027,1.027,0,0,0-1.41.11A7.989,7.989,0,0,0,24,26v5H22V26a10.076,10.076,0,0,1,.5-3.141.907.907,0,0,0,.05-.329,1.009,1.009,0,0,0-.68-.94,1.025,1.025,0,0,0-1.27.639A12,12,0,0,0,20,26v5H18V26a14.158,14.158,0,0,1,.73-4.48.961.961,0,0,0,.06-.331,1,1,0,0,0-1.95-.309A15.794,15.794,0,0,0,16,26v5H14V26a18.119,18.119,0,0,1,.38-3.69,1.492,1.492,0,0,0,.02-.21,1,1,0,0,0-.79-.98,1.018,1.018,0,0,0-1.19.77V21.9a.459.459,0,0,1-.01.051A20.235,20.235,0,0,0,12,26v5H6v2h6v1.02a1,1,0,0,0,2,0V33h2v.78a1,1,0,0,0,2,0V33h2v1.12a1,1,0,0,0,2,0V33h2v.75a1,1,0,0,0,2,0V33h2v5a4.032,4.032,0,0,0,.29,1.49.976.976,0,0,0,1.3.55.942.942,0,0,0,.54-.53.981.981,0,0,0,.01-.77A2.111,2.111,0,0,1,30,38V33h4v5a2.008,2.008,0,0,1-1.98,2H32a.99.99,0,0,0-1,1,.99.99,0,0,0,1,1h.05A4.015,4.015,0,0,0,36,38V33h2v5a6.042,6.042,0,0,1-1.43,3.89.967.967,0,0,0-.24.65,1,1,0,0,0,1.76.649A8.027,8.027,0,0,0,40,38V33h2v5a9.946,9.946,0,0,1-.5,3.12,1.241,1.241,0,0,0-.05.319,1.023,1.023,0,0,0,.69.951,1.058,1.058,0,0,0,.31.049.99.99,0,0,0,.95-.689A11.825,11.825,0,0,0,44,38V33h2v1.43h.05l-.05.009a.984.984,0,0,0,1,.971,1,1,0,0,0,1-.971V33h2v.92a1,1,0,0,0,2,0V33h6Z">
        </path>
        <rect width="2" height="2" x="60" y="31"></rect>
        <path d="M5,29a3,3,0,1,0-3-3A3,3,0,0,0,5,29Zm0-4a1,1,0,1,1-1,1A1,1,0,0,1,5,25Z"></path>
        <path d="M59,35a3,3,0,1,0,3,3A3,3,0,0,0,59,35Zm0,4a1,1,0,1,1,1-1A1,1,0,0,1,59,39Z"></path>
        <rect width="6" height="2" x="56" y="27"></rect>
        <rect width="2" height="2" x="56" y="23"></rect>
        <rect width="2" height="2" x="60" y="23"></rect>
        <rect width="6" height="2" x="2" y="35"></rect>
        <rect width="2" height="2" x="2" y="39"></rect>
        <rect width="2" height="2" x="6" y="39"></rect>
    </g>
</svg>