<svg xmlns="http://www.w3.org/2000/svg" x="0px" y="0px" width="256" height="256" viewBox="0 0 64 64"
    style=" fill:#000000;">
    <path fill="#FAB400"
        d="M56,52H8c-2.209,0-4-1.791-4-4V18c0-2.209,1.791-4,4-4h48c2.209,0,4,1.791,4,4v30 C60,50.209,58.209,52,56,52z">
    </path>
    <path fill="#00A0C8" d="M60,22H4v-4c0-2.209,1.791-4,4-4h48c2.209,0,4,1.791,4,4V22z"></path>
    <path fill="#0082AA" d="M29,14v2c0,1.105,0.895,2,2,2h4c1.105,0,2-0.895,2-2v-2H29z"></path>
    <path fill="#0A5078"
        d="M36,20h-8c-1.105,0-2-0.895-2-2v0c0-1.105,0.895-2,2-2h8c1.105,0,2,0.895,2,2v0 C38,19.105,37.105,20,36,20z">
    </path>
    <path fill="#F0F0F0"
        d="M22,48H10c-1.105,0-2-0.895-2-2V28c0-1.105,0.895-2,2-2h12c1.105,0,2,0.895,2,2v18 C24,47.105,23.105,48,22,48z">
    </path>
    <path fill="#00A0C8"
        d="M8,46v-3c0-1.657,1.343-3,3-3h10c1.657,0,3,1.343,3,3v3c0,1.105-0.895,2-2,2H10 C8.895,48,8,47.105,8,46z">
    </path>
    <path fill="#0082AA" d="M16,44L16,44c-2.209,0-4-1.791-4-4v0h8v0C20,42.209,18.209,44,16,44z"></path>
    <path fill="#D2AA82" d="M16,42L16,42c-1.105,0-2-0.895-2-2v-3h4v3C18,41.105,17.105,42,16,42z"></path>
    <path fill="#F0C8A0"
        d="M17,38h-2c-1.657,0-3-1.343-3-3v-3c0-1.105,0.895-2,2-2h4c1.105,0,2,0.895,2,2v3 C20,36.657,18.657,38,17,38z">
    </path>
    <path fill="#C80A50"
        d="M18,30h-4c-1.105,0-2,0.895-2,2v0v-2c0-1.105,0.895-2,2-2h4c1.105,0,2,0.895,2,2v2v0 C20,30.895,19.105,30,18,30z">
    </path>
    <path fill="#C80A50" d="M34,18h-4c-1.105,0-2-0.895-2-2V8h8v8C36,17.105,35.105,18,34,18z"></path>
    <path fill="#C80A50"
        d="M37,30h-8c-0.552,0-1-0.448-1-1v0c0-0.552,0.448-1,1-1h8c0.552,0,1,0.448,1,1v0 C38,29.552,37.552,30,37,30z">
    </path>
    <path fill="#C80A50"
        d="M37,34h-8c-0.552,0-1-0.448-1-1l0,0c0-0.552,0.448-1,1-1h8c0.552,0,1,0.448,1,1l0,0 C38,33.552,37.552,34,37,34z">
    </path>
    <path fill="#C80A50"
        d="M37,38h-8c-0.552,0-1-0.448-1-1l0,0c0-0.552,0.448-1,1-1h8c0.552,0,1,0.448,1,1l0,0 C38,37.552,37.552,38,37,38z">
    </path>
    <path fill="#DC9600"
        d="M53,30H41c-0.552,0-1-0.448-1-1v0c0-0.552,0.448-1,1-1h12c0.552,0,1,0.448,1,1v0 C54,29.552,53.552,30,53,30z">
    </path>
    <g>
        <path fill="#DC9600"
            d="M47,34h-6c-0.552,0-1-0.448-1-1l0,0c0-0.552,0.448-1,1-1h6c0.552,0,1,0.448,1,1l0,0 C48,33.552,47.552,34,47,34z">
        </path>
    </g>
    <g>
        <path fill="#C80A50"
            d="M37,42h-8c-0.552,0-1-0.448-1-1l0,0c0-0.552,0.448-1,1-1h8c0.552,0,1,0.448,1,1l0,0 C38,41.552,37.552,42,37,42z">
        </path>
    </g>
    <g>
        <path fill="#DC9600"
            d="M47,42h-6c-0.552,0-1-0.448-1-1l0,0c0-0.552,0.448-1,1-1h6c0.552,0,1,0.448,1,1l0,0 C48,41.552,47.552,42,47,42z">
        </path>
    </g>
    <g>
        <path fill="#DC9600"
            d="M53,38H41c-0.552,0-1-0.448-1-1l0,0c0-0.552,0.448-1,1-1h12c0.552,0,1,0.448,1,1l0,0 C54,37.552,53.552,38,53,38z">
        </path>
    </g>
    <g>
        <path fill="#0A5078"
            d="M53,48H41c-0.552,0-1-0.448-1-1l0,0c0-0.552,0.448-1,1-1h12c0.552,0,1,0.448,1,1l0,0 C54,47.552,53.552,48,53,48z">
        </path>
    </g>
</svg>