<svg xmlns="http://www.w3.org/2000/svg" x="0px" y="0px" width="200" height="200" viewBox="0 0 100 100"
    style=" fill:#000000;">
    <path fill="#c4e7ed"
        d="M75,83H23c-3.866,0-7-3.134-7-7V24c0-3.866,3.134-7,7-7h52c3.866,0,7,3.134,7,7v52 C82,79.866,78.866,83,75,83z">
    </path>
    <path fill="#fbb97f" d="M50,27c-12.682,0-23,10.318-23,23s10.318,23,23,23s23-10.318,23-23S62.682,27,50,27z"></path>
    <path fill="#d68f53" d="M29.291,60C33.018,67.687,40.9,73,50,73s16.982-5.313,20.709-13H29.291z"></path>
    <circle cx="50" cy="50" r="10.5" fill="#444445"></circle>
    <circle cx="54" cy="45" r="3.5" fill="#fff"></circle>
    <g>
        <path fill="#1f212b"
            d="M17,35c-0.553,0-1-0.447-1-1V24c0-3.859,3.141-7,7-7h10c0.553,0,1,0.447,1,1s-0.447,1-1,1H23 c-2.757,0-5,2.243-5,5v10C18,34.553,17.553,35,17,35z">
        </path>
        <path fill="#1f212b"
            d="M33,83H23c-3.859,0-7-3.141-7-7V66c0-0.553,0.447-1,1-1s1,0.447,1,1v10c0,2.757,2.243,5,5,5h10 c0.553,0,1,0.447,1,1S33.553,83,33,83z">
        </path>
        <path fill="#1f212b"
            d="M81,35c-0.553,0-1-0.447-1-1V24c0-2.757-2.243-5-5-5H65c-0.553,0-1-0.447-1-1s0.447-1,1-1h10 c3.859,0,7,3.141,7,7v10C82,34.553,81.553,35,81,35z">
        </path>
        <path fill="#1f212b"
            d="M75,83H65c-0.553,0-1-0.447-1-1s0.447-1,1-1h10c2.757,0,5-2.243,5-5V66c0-0.553,0.447-1,1-1 s1,0.447,1,1v10C82,79.859,78.859,83,75,83z">
        </path>
        <path fill="#1f212b"
            d="M50,74c-13.233,0-24-10.767-24-24s10.767-24,24-24s24,10.767,24,24S63.233,74,50,74z M50,28 c-12.131,0-22,9.869-22,22s9.869,22,22,22s22-9.869,22-22S62.131,28,50,28z">
        </path>
        <path fill="#1f212b"
            d="M50,61c-6.065,0-11-4.935-11-11s4.935-11,11-11s11,4.935,11,11S56.065,61,50,61z M50,40 c-5.514,0-10,4.486-10,10c0,5.514,4.486,10,10,10c5.514,0,10-4.486,10-10C60,44.486,55.514,40,50,40z">
        </path>
        <path fill="#1f212b"
            d="M54,49c-2.206,0-4-1.794-4-4s1.794-4,4-4s4,1.794,4,4S56.206,49,54,49z M54,42c-1.654,0-3,1.346-3,3 s1.346,3,3,3s3-1.346,3-3S55.654,42,54,42z">
        </path>
        <path fill="#1f212b" d="M81,61H17c-0.552,0-1-0.447-1-1s0.448-1,1-1h64c0.553,0,1,0.447,1,1S81.553,61,81,61z">
        </path>
    </g>
</svg>