<svg xmlns="http://www.w3.org/2000/svg" x="0px" y="0px" width="200" height="200" viewBox="0 0 100 100"
    style=" fill:#000000;">
    <path fill="#ee3e54" d="M13 27A2 2 0 1 0 13 31A2 2 0 1 0 13 27Z"></path>
    <path fill="#f1bc19" d="M77 12A1 1 0 1 0 77 14A1 1 0 1 0 77 12Z"></path>
    <path fill="#fce0a2" d="M50 13A37 37 0 1 0 50 87A37 37 0 1 0 50 13Z"></path>
    <path fill="#f1bc19" d="M83 11A4 4 0 1 0 83 19A4 4 0 1 0 83 11Z"></path>
    <path fill="#ee3e54" d="M87 22A2 2 0 1 0 87 26A2 2 0 1 0 87 22Z"></path>
    <path fill="#fbcd59" d="M81 74A2 2 0 1 0 81 78 2 2 0 1 0 81 74zM15 59A4 4 0 1 0 15 67 4 4 0 1 0 15 59z"></path>
    <path fill="#ee3e54" d="M25 85A2 2 0 1 0 25 89A2 2 0 1 0 25 85Z"></path>
    <path fill="#fff" d="M18.5 51A2.5 2.5 0 1 0 18.5 56A2.5 2.5 0 1 0 18.5 51Z"></path>
    <path fill="#f1bc19" d="M21 66A1 1 0 1 0 21 68A1 1 0 1 0 21 66Z"></path>
    <path fill="#fff" d="M80 33A1 1 0 1 0 80 35A1 1 0 1 0 80 33Z"></path>
    <path fill="#d6d3c5"
        d="M29,69.3c-1.819,0-3.3-1.48-3.3-3.3V39c0-1.819,1.48-3.3,3.3-3.3h12.38l1.247-3.743 c0.45-1.35,1.708-2.257,3.131-2.257h8.359c1.423,0,2.681,0.907,3.131,2.257l1.247,3.743H71c1.819,0,3.3,1.48,3.3,3.3v27 c0,1.819-1.48,3.3-3.3,3.3H29z">
    </path>
    <path fill="#472b29"
        d="M54.117,30.4c1.121,0,2.112,0.714,2.467,1.778l1.088,3.265l0.319,0.957H59h12 c1.434,0,2.6,1.166,2.6,2.6v27c0,1.434-1.166,2.6-2.6,2.6H29c-1.434,0-2.6-1.166-2.6-2.6V39c0-1.434,1.166-2.6,2.6-2.6h11.875 h1.009l0.319-0.957l1.088-3.265c0.354-1.063,1.346-1.778,2.467-1.778H54.117 M54.117,29h-8.359c-1.722,0-3.25,1.102-3.795,2.735 L40.875,35H29c-2.209,0-4,1.791-4,4v27c0,2.209,1.791,4,4,4h42c2.209,0,4-1.791,4-4V39c0-2.209-1.791-4-4-4H59l-1.088-3.265 C57.367,30.102,55.839,29,54.117,29L54.117,29z">
    </path>
    <g>
        <path fill="#be7841" d="M26.333 43H73.5V64H26.333z"></path>
    </g>
    <g>
        <path fill="#28262d" d="M62 38H68V41H62z"></path>
    </g>
    <g>
        <path fill="#d6d3c5" d="M30.7 31.7H37.3V35.3H30.7z"></path>
        <path fill="#472b29" d="M36.6,32.4v2.2h-5.2v-2.2H36.6 M38,31h-8v5h8V31L38,31z"></path>
    </g>
    <g>
        <path fill="#472b29"
            d="M48.5,37h-8c-0.276,0-0.5-0.224-0.5-0.5s0.224-0.5,0.5-0.5h8c0.276,0,0.5,0.224,0.5,0.5 S48.776,37,48.5,37z">
        </path>
    </g>
    <g>
        <path fill="#472b29"
            d="M62.5,44h-36c-0.276,0-0.5-0.224-0.5-0.5s0.224-0.5,0.5-0.5h36c0.276,0,0.5,0.224,0.5,0.5 S62.776,44,62.5,44z">
        </path>
    </g>
    <g>
        <path fill="#472b29"
            d="M69.5,64h-43c-0.276,0-0.5-0.224-0.5-0.5s0.224-0.5,0.5-0.5h43c0.276,0,0.5,0.224,0.5,0.5 S69.776,64,69.5,64z">
        </path>
    </g>
    <g>
        <path fill="#472b29"
            d="M55.5,37h-4c-0.276,0-0.5-0.224-0.5-0.5s0.224-0.5,0.5-0.5h4c0.276,0,0.5,0.224,0.5,0.5 S55.776,37,55.5,37z">
        </path>
    </g>
    <g>
        <path fill="#472b29"
            d="M70.5,44h-4c-0.276,0-0.5-0.224-0.5-0.5s0.224-0.5,0.5-0.5h4c0.276,0,0.5,0.224,0.5,0.5 S70.776,44,70.5,44z">
        </path>
    </g>
    <g>
        <path fill="#bebacb" d="M49.5 42.7A10.8 10.8 0 1 0 49.5 64.3A10.8 10.8 0 1 0 49.5 42.7Z"></path>
        <path fill="#472b29"
            d="M49.5,43.4c5.569,0,10.1,4.531,10.1,10.1s-4.531,10.1-10.1,10.1s-10.1-4.531-10.1-10.1 S43.931,43.4,49.5,43.4 M49.5,42C43.149,42,38,47.149,38,53.5S43.149,65,49.5,65S61,59.851,61,53.5S55.851,42,49.5,42L49.5,42z">
        </path>
    </g>
    <g>
        <path fill="#28262d" d="M49.5 47.7A5.8 5.8 0 1 0 49.5 59.3A5.8 5.8 0 1 0 49.5 47.7Z"></path>
        <path fill="#472b29"
            d="M49.5,48.4c2.812,0,5.1,2.288,5.1,5.1s-2.288,5.1-5.1,5.1s-5.1-2.288-5.1-5.1 S46.688,48.4,49.5,48.4 M49.5,47c-3.59,0-6.5,2.91-6.5,6.5s2.91,6.5,6.5,6.5s6.5-2.91,6.5-6.5S53.09,47,49.5,47L49.5,47z">
        </path>
    </g>
</svg>