<svg xmlns="http://www.w3.org/2000/svg" x="0px" y="0px"
width="200" height="200"
viewBox="0 0 256 256"
style=" fill:#000000;"><path fill="#edf4fc" d="M174.5,86.9c0-13.1,6.4-25.3,17.2-32.6V28.9c0-4.3-3.5-7.8-7.8-7.8l0,0h-144c-4.3,0-7.8,3.5-7.8,7.8v83.9 l70.3,60.7c4.9,4.3,12.2,4.3,17.2,0l67.6-57.7C179.1,108.4,174.5,97.9,174.5,86.9z"></path><path fill="#f48e1e" d="M132.9,21L119.6,9.7c-5-4.2-12.2-4.2-17.2,0L89.3,21L132.9,21z"></path><path fill="#f48e1e" d="M32.1,70.5L12,87.8c2.1-0.9,4.3-1.4,6.5-1.4h13.5V70.5z"></path><path fill="#fcac27" d="M214,126.4c-10,0-19.5-3.8-26.8-10.5l-67.6,57.7c-5,4.2-12.2,4.2-17.2,0l-70.3-60.7V86.4H18.6 c-8.9,0-16.1,7.2-16.1,16.1v130.9c0,8.9,7.2,16.1,16.1,16.1h186.1c8.9,0,16.1-7.2,16.1-16.1V125.8 C218.5,126.2,216.3,126.4,214,126.4z"></path><path fill="#facb35" d="M119.6,173.6c-5,4.2-12.2,4.2-17.2,0l-6.5-5.6L7.1,244.7c3,3.1,7.1,4.8,11.4,4.8h186.1 c4.3,0,8.4-1.7,11.4-4.8l-89.9-76.8L119.6,173.6z"></path><path fill="#f48e1e" d="M18.6,86.4c-4.3,0-8.4,1.7-11.4,4.8l25,21.6V86.4H18.6z"></path><circle cx="214" cy="86.9" r="39.5" fill="#fc3850"></circle><path fill="#edf4fc" d="M219.2,67h-12.6c-1.5,0-2.8,1.2-2.8,2.8v5.3c0,1.5,1.2,2.8,2.8,2.8h3.9V106c0,1.5,1.2,2.8,2.8,2.8h6 c1.5,0,2.8-1.2,2.8-2.8V69.7C221.9,68.2,220.7,67,219.2,67C219.2,67,219.2,67,219.2,67z"></path><path d="M214,128.9c-23.2,0-42-18.8-42-42s18.8-42,42-42s42,18.8,42,42c0,0,0,0,0,0C256,110.1,237.2,128.9,214,128.9z M214,49.9 c-20.4,0-37,16.6-37,37s16.6,37,37,37c20.4,0,37-16.6,37-37C251,66.5,234.4,49.9,214,49.9L214,49.9z"></path><path d="M162.8,117.7H61.4c-1.4,0-2.5-1.1-2.5-2.5s1.1-2.5,2.5-2.5h101.4c1.4,0,2.5,1.1,2.5,2.5S164.2,117.7,162.8,117.7z"></path><path d="M162.8,136.7H61.4c-1.4,0-2.5-1.1-2.5-2.5s1.1-2.5,2.5-2.5h101.4c1.4,0,2.5,1.1,2.5,2.5S164.2,136.7,162.8,136.7z"></path><path d="M162.8,60.8H61.4c-1.4,0-2.5-1.1-2.5-2.5s1.1-2.5,2.5-2.5h101.4c1.4,0,2.5,1.1,2.5,2.5S164.2,60.8,162.8,60.8z"></path><path d="M162.8,79.8H61.4c-1.4,0-2.5-1.1-2.5-2.5s1.1-2.5,2.5-2.5h101.4c1.4,0,2.5,1.1,2.5,2.5S164.2,79.8,162.8,79.8z"></path><path d="M162.8,98.7H61.4c-1.4,0-2.5-1.1-2.5-2.5s1.1-2.5,2.5-2.5h101.4c1.4,0,2.5,1.1,2.5,2.5S164.2,98.7,162.8,98.7z"></path><path d="M132.9,23.5H89.3c-1.4,0-2.5-1.1-2.5-2.5c0-0.7,0.3-1.4,0.9-1.9l13.1-11.3c5.8-5.1,14.6-5.1,20.4-0.1l13.3,11.3 c1,0.9,1.2,2.5,0.3,3.5C134.3,23.2,133.6,23.5,132.9,23.5L132.9,23.5z M96.1,18.5h30.1l-8.1-6.9c-4-3.5-9.9-3.4-13.9,0L96.1,18.5z"></path><path d="M12,90.3c-1.4,0-2.5-1.1-2.5-2.5c0-0.7,0.3-1.4,0.9-1.9l20.1-17.3c1-0.9,2.6-0.8,3.5,0.3c0.4,0.5,0.6,1,0.6,1.6v15.9 c0,1.4-1.1,2.5-2.5,2.5H18.6c-1.9,0-3.8,0.4-5.5,1.2C12.7,90.2,12.4,90.3,12,90.3z M20.4,83.9h9.2v-8L20.4,83.9z"></path><path d="M143.5,155.7H78.9c-1.4,0-2.5-1.1-2.5-2.5s1.1-2.5,2.5-2.5h64.6c1.4,0,2.5,1.1,2.5,2.5S144.9,155.7,143.5,155.7z"></path><path d="M204.7,252H18.6C8.3,251.9,0,243.6,0,233.4V102.5c0-10.2,8.3-18.5,18.6-18.6h13.5c1.4,0,2.5,1.1,2.5,2.5v25.2l69.5,60 c4,3.5,9.9,3.5,13.9,0l67.6-57.7c1-0.8,2.4-0.8,3.3,0.1c8.4,7.9,20.1,11.3,31.4,9.3c1.4-0.2,2.7,0.7,2.9,2c0,0.1,0,0.3,0,0.4 v107.6C223.2,243.6,214.9,251.9,204.7,252z M18.6,88.9C11.1,88.9,5,95,5,102.5v130.9c0,7.5,6.1,13.5,13.6,13.6h186.1 c7.5,0,13.5-6.1,13.6-13.6V128.7c-11.2,1.2-22.4-2.3-31.1-9.5l-65.9,56.3c-5.9,5.1-14.6,5-20.4-0.1l-70.3-60.8 c-0.5-0.5-0.9-1.2-0.9-1.9V88.9H18.6z"></path><path d="M111,179.3c-3.8,0-7.4-1.4-10.3-3.8l-70.3-60.7c-0.5-0.5-0.9-1.2-0.9-1.9V28.9c0-5.7,4.6-10.3,10.3-10.3h144 c5.7,0,10.3,4.6,10.3,10.3v25.4c0,0.8-0.4,1.6-1.1,2.1c-16.9,11.5-21.2,34.5-9.7,51.4c1.6,2.3,3.4,4.4,5.4,6.3 c1,0.9,1.1,2.5,0.1,3.5c-0.1,0.1-0.1,0.1-0.2,0.2l-67.6,57.7C118.4,177.9,114.8,179.3,111,179.3z M34.6,111.6l69.5,60 c4,3.5,9.9,3.5,13.9,0l65.5-55.9c-15.9-16.8-15.2-43.4,1.7-59.3c1.3-1.2,2.7-2.4,4.1-3.4V28.9c0-2.9-2.4-5.3-5.3-5.3h-144 c-2.9,0-5.3,2.4-5.3,5.3V111.6z"></path><path d="M219.2,111.3h-6c-2.9,0-5.3-2.4-5.3-5.3V80.3h-1.4c-2.9,0-5.3-2.4-5.3-5.3v-5.3c0-2.9,2.4-5.3,5.3-5.3h12.6 c2.9,0,5.3,2.4,5.3,5.3V106C224.4,108.9,222.1,111.3,219.2,111.3z M206.5,69.5c-0.1,0-0.3,0.1-0.3,0.3v5.3c0,0.1,0.1,0.3,0.3,0.3 h3.9c1.4,0,2.5,1.1,2.5,2.5V106c0,0.1,0.1,0.3,0.3,0.3h6c0.1,0,0.3-0.1,0.3-0.3V69.7c0-0.1-0.1-0.3-0.3-0.3H206.5z"></path><path d="M204.7,252H18.6c-5,0-9.7-2-13.2-5.5c-1-1-1-2.6,0-3.5c0,0,0.1-0.1,0.1-0.1l88.8-76.7c0.9-0.8,2.3-0.8,3.3,0l6.5,5.6 c4,3.5,9.9,3.5,13.9,0l0,0l6.6-5.6c0.9-0.8,2.3-0.8,3.2,0l89.9,76.8c1,0.9,1.2,2.5,0.3,3.5c0,0-0.1,0.1-0.1,0.1 C214.4,250,209.6,252,204.7,252z M11,244.6c2.2,1.5,4.9,2.3,7.6,2.3h186.1c2.7,0,5.3-0.8,7.5-2.3l-86-73.4l-5,4.2 c-5.9,5.1-14.6,5-20.4-0.1l-4.8-4.2L11,244.6z"></path><path d="M32.1,115.3c-0.6,0-1.2-0.2-1.6-0.6l-25-21.6c-1-0.9-1.2-2.5-0.3-3.5c0,0,0.1-0.1,0.1-0.1c3.5-3.6,8.2-5.5,13.2-5.5h13.5 c1.4,0,2.5,1.1,2.5,2.5v26.4C34.6,114.2,33.5,115.3,32.1,115.3L32.1,115.3z M11,91.2l18.6,16.1V88.9h-11 C15.9,88.9,13.2,89.7,11,91.2z"></path></svg>