<svg xmlns="http://www.w3.org/2000/svg" x="0px" y="0px" width="256" height="256" viewBox="0 0 64 64"
    style=" fill:#000000;">
    <path fill="#00A0C8"
        d="M28,7v0.506c0,0.479-0.343,0.881-0.813,0.977c-0.948,0.193-1.876,0.442-2.78,0.743 c-0.455,0.151-0.951-0.026-1.19-0.44l-0.252-0.437c-0.276-0.478-0.888-0.642-1.366-0.366l-5.196,3 c-0.478,0.276-0.642,0.888-0.366,1.366l0.255,0.442c0.239,0.415,0.144,0.933-0.214,1.251c-0.718,0.637-1.398,1.317-2.035,2.035 c-0.318,0.358-0.836,0.453-1.251,0.214l-0.442-0.255c-0.478-0.276-1.09-0.112-1.366,0.366l-3,5.196 c-0.276,0.478-0.112,1.09,0.366,1.366l0.437,0.252c0.415,0.24,0.592,0.736,0.44,1.191c-0.301,0.904-0.55,1.832-0.743,2.78 C8.387,27.657,7.986,28,7.506,28H7c-0.552,0-1,0.448-1,1v6c0,0.552,0.448,1,1,1h0.506c0.479,0,0.881,0.343,0.977,0.813 c0.193,0.948,0.442,1.876,0.743,2.78c0.152,0.455-0.025,0.951-0.44,1.191l-0.437,0.252c-0.478,0.276-0.642,0.888-0.366,1.366 l3,5.196c0.276,0.478,0.888,0.642,1.366,0.366l0.442-0.255c0.415-0.24,0.933-0.144,1.251,0.214 c0.637,0.718,1.317,1.398,2.035,2.035c0.358,0.318,0.453,0.836,0.214,1.251l-0.255,0.442c-0.276,0.478-0.112,1.09,0.366,1.366 l5.196,3c0.478,0.276,1.09,0.112,1.366-0.366l0.252-0.437c0.24-0.415,0.736-0.592,1.19-0.44c0.904,0.301,1.832,0.55,2.78,0.743 C27.657,55.613,28,56.014,28,56.494V57c0,0.552,0.448,1,1,1h6c0.552,0,1-0.448,1-1v-0.506c0-0.479,0.343-0.881,0.813-0.977 c0.948-0.193,1.876-0.442,2.78-0.743c0.455-0.151,0.951,0.026,1.191,0.44l0.252,0.437c0.276,0.478,0.888,0.642,1.366,0.366 l5.196-3c0.478-0.276,0.642-0.888,0.366-1.366l-0.255-0.442c-0.239-0.415-0.144-0.933,0.214-1.251 c0.718-0.637,1.398-1.317,2.035-2.035c0.318-0.358,0.836-0.453,1.251-0.214l0.442,0.255c0.478,0.276,1.09,0.112,1.366-0.366 l3-5.196c0.276-0.478,0.112-1.09-0.366-1.366l-0.437-0.252c-0.415-0.24-0.592-0.736-0.44-1.191 c0.301-0.904,0.55-1.832,0.743-2.78C55.613,36.343,56.014,36,56.494,36H57c0.552,0,1-0.448,1-1v-6c0-0.552-0.448-1-1-1h-0.506 c-0.479,0-0.881-0.343-0.977-0.813c-0.193-0.948-0.442-1.876-0.743-2.78c-0.151-0.455,0.026-0.951,0.44-1.191l0.437-0.252 c0.478-0.276,0.642-0.888,0.366-1.366l-3-5.196c-0.276-0.478-0.888-0.642-1.366-0.366l-0.442,0.255 c-0.415,0.24-0.933,0.144-1.251-0.214c-0.637-0.718-1.317-1.398-2.035-2.035c-0.358-0.318-0.453-0.836-0.214-1.251l0.255-0.442 c0.276-0.478,0.112-1.09-0.366-1.366l-5.196-3c-0.478-0.276-1.09-0.112-1.366,0.366l-0.252,0.437 c-0.24,0.415-0.736,0.592-1.191,0.44c-0.904-0.301-1.832-0.55-2.78-0.743C36.343,8.387,36,7.986,36,7.506V7 c0-0.552-0.448-1-1-1h-6C28.448,6,28,6.448,28,7z M52,32c0,11.046-8.954,20-20,20c-11.046,0-20-8.954-20-20s8.954-20,20-20 C43.046,12,52,20.954,52,32z">
    </path>
    <path fill="#FAB400"
        d="M48,32c0-8.822-7.178-16-16-16s-16,7.178-16,16v1c0,0.552,0.448,1,1,1h2c0.552,0,1-0.448,1-1v-1 c0-6.617,5.383-12,12-12s12,5.383,12,12c0,6.28-4.849,11.448-11,11.958V43c0-0.404-0.243-0.769-0.617-0.924 c-0.373-0.154-0.804-0.07-1.09,0.217l-3,3c-0.391,0.391-0.391,1.023,0,1.414l3,3C31.484,49.898,31.74,50,32,50 c0.129,0,0.259-0.025,0.383-0.076C32.757,49.769,33,49.404,33,49v-1.031C41.358,47.451,48,40.486,48,32z">
    </path>
</svg>