<svg xmlns="http://www.w3.org/2000/svg" x="0px" y="0px" width="192" height="192" viewBox="0 0 128 128"
    style=" fill:#000000;">
    <path fill="#e6e7e8"
        d="M105.333,17H91.27a4.99,4.99,0,0,0-4.77-3.583H75.734a9.988,9.988,0,0,0-19.468,0H45.5A4.992,4.992,0,0,0,40.729,17H26.666a5.006,5.006,0,0,0-5,5v99.334a5.006,5.006,0,0,0,5,5h78.667a5.006,5.006,0,0,0,5-5V22A5.006,5.006,0,0,0,105.333,17Z">
    </path>
    <rect width="86.667" height="107.333" x="18.667" y="14" fill="#6dc9f7" rx="4" ry="4"></rect>
    <path fill="#fff"
        d="M101.333,118.333H22.667a4,4,0,0,1-4-4v3a4,4,0,0,0,4,4h78.666a4,4,0,0,0,4-4v-3A4,4,0,0,1,101.333,118.333Z">
    </path>
    <rect width="72.667" height="93.333" x="25.667" y="21" fill="#d4fbff" rx="2" ry="2"></rect>
    <path fill="#fff8d7"
        d="M85.958,87.5H38.042a6.25,6.25,0,0,0-6.25,6.25h0a6.25,6.25,0,0,0,6.25,6.25H85.958a6.25,6.25,0,0,0,6.25-6.25h0A6.25,6.25,0,0,0,85.958,87.5Z">
    </path>
    <path fill="#FAB400" d="M38.042,90.5a3.25,3.25,0,0,0,0,6.5H72.208V90.5Z"></path>
    <path fill="#00A0C8"
        d="M70.9,10.417a8.989,8.989,0,0,0-17.806,0H41.5a4,4,0,0,0-4,4v8.5a2,2,0,0,0,2,2h45a2,2,0,0,0,2-2v-8.5a4,4,0,0,0-4-4Z">
    </path>
    <circle cx="62" cy="11.667" r="3" fill="#fff"></circle>
    <path fill="#FAB400"
        d="M84.5,60.108V55.386a1.314,1.314,0,0,0-1.315-1.314H80.008a18.256,18.256,0,0,0-2.679-6.457l2.25-2.249a1.316,1.316,0,0,0,0-1.86l-3.338-3.338a1.315,1.315,0,0,0-1.86,0l-2.249,2.25a18.256,18.256,0,0,0-6.457-2.679V36.562a1.314,1.314,0,0,0-1.314-1.315H59.639a1.314,1.314,0,0,0-1.314,1.315v3.177a18.256,18.256,0,0,0-6.457,2.679l-2.249-2.25a1.315,1.315,0,0,0-1.86,0l-3.338,3.338a1.315,1.315,0,0,0,0,1.86l2.25,2.249a18.256,18.256,0,0,0-2.679,6.457H40.815A1.314,1.314,0,0,0,39.5,55.386v4.722a1.314,1.314,0,0,0,1.315,1.314h3.177a18.256,18.256,0,0,0,2.679,6.457l-2.25,2.249a1.315,1.315,0,0,0,0,1.86l3.338,3.338a1.316,1.316,0,0,0,1.86,0l2.249-2.25a18.256,18.256,0,0,0,6.457,2.679v3.177a1.314,1.314,0,0,0,1.314,1.315h4.722a1.314,1.314,0,0,0,1.314-1.315V75.755a18.256,18.256,0,0,0,6.457-2.679l2.249,2.25a1.316,1.316,0,0,0,1.86,0l3.338-3.338a1.316,1.316,0,0,0,0-1.86l-2.25-2.249a18.256,18.256,0,0,0,2.679-6.457h3.177A1.314,1.314,0,0,0,84.5,60.108ZM62,68.5A10.757,10.757,0,1,1,72.757,57.747,10.757,10.757,0,0,1,62,68.5Z">
    </path>
    <path fill="#3f3f3f"
        d="M101.334,13H87.271A4.991,4.991,0,0,0,82.5,9.416H71.734a9.988,9.988,0,0,0-19.468,0H41.5A4.991,4.991,0,0,0,36.729,13H22.667a5.006,5.006,0,0,0-5,5v99.333a5.006,5.006,0,0,0,5,5h78.667a5.006,5.006,0,0,0,5-5V94.667a1,1,0,0,0-2,0v22.666a3,3,0,0,1-3,3H22.667a3,3,0,0,1-3-3V18a3,3,0,0,1,3-3H36.5v5H27.667a3,3,0,0,0-3,3v89.333a3,3,0,0,0,3,3H96.334a3,3,0,0,0,3-3V23a3,3,0,0,0-3-3H87.5V15h13.834a3,3,0,0,1,3,3V80.667a1,1,0,0,0,2,0V18A5.006,5.006,0,0,0,101.334,13ZM38.5,14.416a3,3,0,0,1,3-3H53.1a1,1,0,0,0,.99-.862,7.989,7.989,0,0,1,15.826,0,1,1,0,0,0,.99.862H82.5a3,3,0,0,1,3,3v8.5a1,1,0,0,1-1,1h-45a1,1,0,0,1-1-1ZM96.334,22a1,1,0,0,1,1,1v89.333a1,1,0,0,1-1,1H27.667a1,1,0,0,1-1-1V23a1,1,0,0,1,1-1H36.5v.916a3,3,0,0,0,3,3h45a3,3,0,0,0,3-3V22Z">
    </path>
    <path fill="#3f3f3f" d="M105.334,83.292a1,1,0,0,0-1,1v6.875a1,1,0,0,0,2,0V84.292A1,1,0,0,0,105.334,83.292Z"></path>
    <path fill="#3f3f3f"
        d="M38.042,86.5a7.25,7.25,0,0,0,0,14.5H85.958a7.25,7.25,0,0,0,0-14.5Zm53.166,7.25A5.256,5.256,0,0,1,85.958,99H38.042a5.25,5.25,0,0,1,0-10.5H85.958A5.256,5.256,0,0,1,91.208,93.75Z">
    </path>
    <path fill="#3f3f3f" d="M62,15.666a4,4,0,1,0-4-4A4,4,0,0,0,62,15.666Zm0-6a2,2,0,1,1-2,2A2,2,0,0,1,62,9.666Z"></path>
    <path fill="#3f3f3f"
        d="M62,69.5A11.757,11.757,0,1,0,50.243,57.747,11.77,11.77,0,0,0,62,69.5ZM62,47.99a9.757,9.757,0,1,1-9.757,9.757A9.768,9.768,0,0,1,62,47.99Z">
    </path>
    <path fill="#3f3f3f"
        d="M40.814,62.422h2.378a19.209,19.209,0,0,0,2.2,5.316l-1.683,1.683a2.317,2.317,0,0,0,0,3.274l3.339,3.338a2.316,2.316,0,0,0,3.273,0l1.684-1.684a19.133,19.133,0,0,0,5.315,2.206v2.377a2.317,2.317,0,0,0,2.314,2.315H64.36a2.318,2.318,0,0,0,2.315-2.315V76.555a19.133,19.133,0,0,0,5.315-2.206l1.685,1.685a2.319,2.319,0,0,0,3.273,0l3.339-3.338a2.32,2.32,0,0,0,0-3.274L78.6,67.738a19.176,19.176,0,0,0,2.206-5.316h2.377A2.317,2.317,0,0,0,85.5,60.108V55.386a2.317,2.317,0,0,0-2.315-2.314H80.808A19.158,19.158,0,0,0,78.6,47.757l1.685-1.684a2.32,2.32,0,0,0,0-3.274l-3.338-3.338a2.319,2.319,0,0,0-3.274,0L71.99,41.145a19.163,19.163,0,0,0-5.315-2.206V36.562a2.317,2.317,0,0,0-2.315-2.315H59.639a2.317,2.317,0,0,0-2.314,2.315v2.377a19.133,19.133,0,0,0-5.315,2.206l-1.684-1.684a2.37,2.37,0,0,0-3.274,0L43.714,42.8a2.317,2.317,0,0,0,0,3.274L45.4,47.757a19.163,19.163,0,0,0-2.206,5.315H40.814A2.317,2.317,0,0,0,38.5,55.386v4.722A2.317,2.317,0,0,0,40.814,62.422ZM40.5,55.386a.314.314,0,0,1,.314-.314h3.178a1,1,0,0,0,.98-.8,17.211,17.211,0,0,1,2.532-6.1,1,1,0,0,0-.127-1.259l-2.249-2.25a.315.315,0,0,1,0-.445l3.339-3.338a.267.267,0,0,1,.445,0l2.249,2.249a1,1,0,0,0,1.259.127,17.2,17.2,0,0,1,6.1-2.532,1,1,0,0,0,.8-.98V36.562a.315.315,0,0,1,.314-.315H64.36a.315.315,0,0,1,.315.315v3.177a1,1,0,0,0,.8.979,17.213,17.213,0,0,1,6.1,2.533,1,1,0,0,0,1.259-.127l2.249-2.249a.275.275,0,0,1,.446,0l3.338,3.338a.314.314,0,0,1,0,.445l-2.249,2.25a1,1,0,0,0-.127,1.259,17.234,17.234,0,0,1,2.532,6.1,1,1,0,0,0,.98.8h3.177a.314.314,0,0,1,.315.314v4.722a.315.315,0,0,1-.315.314H80.008a1,1,0,0,0-.98.8,17.218,17.218,0,0,1-2.532,6.1,1,1,0,0,0,.127,1.259l2.249,2.249a.316.316,0,0,1,0,.446l-3.338,3.337a.317.317,0,0,1-.446,0l-2.249-2.25a1,1,0,0,0-1.259-.127,17.2,17.2,0,0,1-6.1,2.533,1,1,0,0,0-.8.98v3.177a.315.315,0,0,1-.315.315H59.639a.315.315,0,0,1-.314-.315V75.755a1,1,0,0,0-.8-.98,17.2,17.2,0,0,1-6.1-2.533,1,1,0,0,0-1.259.127l-2.249,2.249a.315.315,0,0,1-.446,0l-3.338-3.338a.316.316,0,0,1,0-.446l2.249-2.249a1,1,0,0,0,.127-1.259,17.2,17.2,0,0,1-2.532-6.1,1,1,0,0,0-.98-.8H40.814a.315.315,0,0,1-.314-.314Z">
    </path>
</svg>